<svg width="364" height="244" viewBox="0 0 364 244" fill="none" xmlns="http://www.w3.org/2000/svg">
<g clip-path="url(#clip0_3886_4866)">
<path d="M286.234 25.5793H97.2709C90.8671 25.5793 85.6758 30.7706 85.6758 37.1744V215.914C85.6758 222.317 90.8671 227.509 97.2709 227.509H286.234C292.638 227.509 297.829 222.317 297.829 215.914V37.1744C297.829 30.7706 292.638 25.5793 286.234 25.5793Z" fill="#FCFCFC" stroke="#009CB1" stroke-width="0.85" stroke-miterlimit="10"/>
<path d="M282.809 62.6184H101.424C96.8771 62.6184 93.1914 66.3041 93.1914 70.8506V183.032C93.1914 187.579 96.8771 191.265 101.424 191.265H282.809C287.356 191.265 291.041 187.579 291.041 183.032V70.8506C291.041 66.3041 287.356 62.6184 282.809 62.6184Z" fill="#F5F5F5" stroke="#009CB1" stroke-width="0.846356" stroke-miterlimit="10"/>
<path d="M229.142 199.161H190.455C186.746 199.161 183.74 202.167 183.74 205.876V211.888C183.74 215.596 186.746 218.602 190.455 218.602H229.142C232.85 218.602 235.856 215.596 235.856 211.888V205.876C235.856 202.167 232.85 199.161 229.142 199.161Z" fill="#009CB1" stroke="#009CB1" stroke-width="0.564237" stroke-miterlimit="10"/>
<path d="M284.462 199.161H245.775C242.067 199.161 239.061 202.167 239.061 205.876V211.888C239.061 215.596 242.067 218.602 245.775 218.602H284.462C288.17 218.602 291.176 215.596 291.176 211.888V205.876C291.176 202.167 288.17 199.161 284.462 199.161Z" fill="#FCFCFC" stroke="#009CB1" stroke-width="0.564237" stroke-miterlimit="10"/>
<path d="M274.76 69.5789H221.829C218.518 69.5789 215.834 72.2629 215.834 75.5739V102.824C215.834 106.135 218.518 108.819 221.829 108.819H274.76C278.071 108.819 280.755 106.135 280.755 102.824V75.5739C280.755 72.2629 278.071 69.5789 274.76 69.5789Z" fill="#FEFEFE" stroke="#009CB1" stroke-width="0.564237" stroke-miterlimit="10"/>
<path d="M200.075 69.913H105.071C102.167 69.913 99.8125 72.2674 99.8125 75.1717V156.938C99.8125 159.842 102.167 162.197 105.071 162.197H200.075C202.979 162.197 205.333 159.842 205.333 156.938V75.1717C205.333 72.2674 202.979 69.913 200.075 69.913Z" fill="#FEFEFE" stroke="#009CB1" stroke-width="0.564237" stroke-miterlimit="10"/>
<path d="M205.316 69.6309H199.756C198.939 69.6309 198.277 70.2927 198.277 71.1092V161.001C198.277 161.817 198.939 162.479 199.756 162.479H205.316C206.133 162.479 206.795 161.817 206.795 161.001V71.1092C206.795 70.2927 206.133 69.6309 205.316 69.6309Z" fill="#F8F8F8" stroke="#009CB1" stroke-width="0.564237" stroke-miterlimit="10"/>
<path d="M109.418 180.499C109.24 180.499 109.059 180.459 108.901 180.36L106.76 179.032C106.74 179.032 106.74 179.012 106.72 179.012H104.181C103.645 179.012 103.211 178.574 103.211 178.041V174.907C103.211 174.371 103.648 173.936 104.181 173.936H106.72C106.734 173.936 106.747 173.93 106.76 173.917L108.901 172.588C109.197 172.41 109.576 172.39 109.892 172.568C110.207 172.746 110.388 173.065 110.388 173.42V179.548C110.388 179.906 110.191 180.222 109.892 180.4C109.734 180.459 109.576 180.499 109.415 180.499H109.418ZM104.181 174.828C104.142 174.828 104.102 174.867 104.102 174.907V178.041C104.102 178.081 104.142 178.12 104.181 178.12H106.72C106.898 178.12 107.079 178.18 107.237 178.259L109.378 179.587C109.398 179.607 109.437 179.607 109.457 179.587C109.477 179.568 109.497 179.548 109.497 179.528V173.4C109.497 173.361 109.477 173.341 109.457 173.341C109.437 173.321 109.398 173.321 109.378 173.341L107.237 174.69C107.079 174.788 106.898 174.828 106.72 174.828H104.181Z" fill="#C7DADD"/>
<path d="M141.576 174.591H118.107C117.042 174.591 116.18 175.454 116.18 176.518C116.18 177.582 117.042 178.445 118.107 178.445H141.576C142.64 178.445 143.503 177.582 143.503 176.518C143.503 175.454 142.64 174.591 141.576 174.591Z" fill="#C7DADD"/>
<path d="M159.677 174.591H147.312C146.247 174.591 145.385 175.454 145.385 176.518C145.385 177.582 146.247 178.445 147.312 178.445H159.677C160.741 178.445 161.604 177.582 161.604 176.518C161.604 175.454 160.741 174.591 159.677 174.591Z" fill="#C7DADD"/>
<path d="M191.19 174.597H165.661C164.597 174.597 163.734 175.459 163.734 176.523C163.734 177.588 164.597 178.45 165.661 178.45H191.19C192.254 178.45 193.117 177.588 193.117 176.523C193.117 175.459 192.254 174.597 191.19 174.597Z" fill="#C7DADD"/>
<path d="M128.6 1.13886L128.629 26.6854L128.633 29.369L122.242 29.3762L132.835 40.9068L143.401 29.3474L137.011 29.3546L137.007 26.6746L136.977 1.12805L128.6 1.13886Z" fill="#009CB1"/>
<path d="M108.288 46.3381H109.886V48.4264C109.675 48.4962 109.455 48.5522 109.228 48.5945C109 48.6349 108.742 48.6551 108.453 48.6551C108.053 48.6551 107.713 48.5761 107.434 48.4181C107.155 48.2602 106.943 48.0269 106.798 47.7184C106.652 47.4098 106.58 47.0305 106.58 46.5805C106.58 46.1581 106.661 45.7926 106.822 45.484C106.986 45.1754 107.224 44.9367 107.536 44.7677C107.85 44.5987 108.233 44.5142 108.685 44.5142C108.898 44.5142 109.108 44.5372 109.316 44.5831C109.523 44.629 109.711 44.6887 109.88 44.7622L109.597 45.4454C109.474 45.383 109.333 45.3306 109.175 45.2884C109.017 45.2461 108.852 45.225 108.679 45.225C108.431 45.225 108.215 45.282 108.032 45.3958C107.85 45.5097 107.709 45.6695 107.608 45.8752C107.508 46.0791 107.459 46.3197 107.459 46.597C107.459 46.8597 107.495 47.093 107.566 47.2968C107.638 47.4989 107.751 47.6577 107.905 47.7735C108.059 47.8873 108.26 47.9443 108.508 47.9443C108.63 47.9443 108.732 47.9388 108.814 47.9277C108.899 47.9149 108.978 47.902 109.051 47.8892V47.0489H108.288V46.3381ZM113.608 45.5198V48.6H112.963L112.85 48.206H112.806C112.74 48.3107 112.658 48.3961 112.558 48.4622C112.459 48.5283 112.35 48.577 112.231 48.6082C112.111 48.6395 111.987 48.6551 111.859 48.6551C111.638 48.6551 111.446 48.6165 111.283 48.5394C111.119 48.4604 110.992 48.3382 110.9 48.1729C110.81 48.0076 110.765 47.7927 110.765 47.5283V45.5198H111.605V47.3189C111.605 47.5393 111.645 47.7055 111.724 47.8175C111.803 47.9296 111.928 47.9856 112.101 47.9856C112.272 47.9856 112.406 47.947 112.503 47.8699C112.601 47.7909 112.669 47.6761 112.707 47.5255C112.748 47.3731 112.768 47.1875 112.768 46.969V45.5198H113.608ZM115.33 45.5198V48.6H114.49V45.5198H115.33ZM114.911 44.3131C115.036 44.3131 115.144 44.3425 115.234 44.4013C115.324 44.4582 115.369 44.5656 115.369 44.7236C115.369 44.8797 115.324 44.9881 115.234 45.0487C115.144 45.1075 115.036 45.1369 114.911 45.1369C114.784 45.1369 114.676 45.1075 114.586 45.0487C114.498 44.9881 114.454 44.8797 114.454 44.7236C114.454 44.5656 114.498 44.4582 114.586 44.4013C114.676 44.3425 114.784 44.3131 114.911 44.3131ZM117.476 45.4564C117.889 45.4564 118.206 45.5464 118.427 45.7264C118.647 45.9064 118.757 46.1801 118.757 46.5475V48.6H118.17L118.008 48.1812H117.986C117.898 48.2914 117.808 48.3814 117.716 48.4512C117.624 48.521 117.518 48.5724 117.399 48.6055C117.28 48.6385 117.135 48.6551 116.964 48.6551C116.782 48.6551 116.618 48.6202 116.473 48.5504C116.33 48.4806 116.217 48.3741 116.134 48.2308C116.052 48.0857 116.01 47.902 116.01 47.6798C116.01 47.3528 116.125 47.1122 116.355 46.958C116.584 46.8018 116.929 46.7155 117.388 46.699L117.923 46.6825V46.5475C117.923 46.3858 117.88 46.2674 117.796 46.192C117.711 46.1167 117.594 46.0791 117.443 46.0791C117.294 46.0791 117.148 46.1002 117.005 46.1425C116.862 46.1847 116.719 46.238 116.575 46.3023L116.297 45.7347C116.46 45.6484 116.643 45.5804 116.845 45.5308C117.049 45.4812 117.259 45.4564 117.476 45.4564ZM117.923 47.1729L117.597 47.1839C117.326 47.1912 117.136 47.2399 117.03 47.3299C116.925 47.4199 116.873 47.5384 116.873 47.6853C116.873 47.8139 116.91 47.9057 116.986 47.9608C117.061 48.0141 117.159 48.0407 117.281 48.0407C117.461 48.0407 117.612 47.9874 117.735 47.8809C117.86 47.7744 117.923 47.6228 117.923 47.4263V47.1729ZM122.066 48.6551C121.723 48.6551 121.443 48.521 121.226 48.2528C121.011 47.9828 120.903 47.587 120.903 47.0654C120.903 46.5383 121.013 46.1397 121.231 45.8697C121.45 45.5979 121.736 45.462 122.088 45.462C122.235 45.462 122.365 45.4822 122.477 45.5226C122.589 45.563 122.685 45.6172 122.766 45.6851C122.849 45.7531 122.918 45.8293 122.975 45.9138H123.003C122.992 45.855 122.978 45.7687 122.962 45.6548C122.947 45.5391 122.939 45.4206 122.939 45.2994V44.3131H123.783V48.6H123.138L122.975 48.2005H122.939C122.886 48.285 122.819 48.3621 122.738 48.4319C122.659 48.4999 122.565 48.5541 122.455 48.5945C122.344 48.6349 122.215 48.6551 122.066 48.6551ZM122.361 47.9856C122.591 47.9856 122.752 47.9176 122.846 47.7817C122.941 47.644 122.992 47.4373 122.997 47.1618V47.0709C122.997 46.7715 122.951 46.5429 122.86 46.3849C122.768 46.2251 122.597 46.1452 122.347 46.1452C122.162 46.1452 122.017 46.2251 121.912 46.3849C121.807 46.5447 121.755 46.7752 121.755 47.0764C121.755 47.3776 121.807 47.6045 121.912 47.7569C122.018 47.9094 122.168 47.9856 122.361 47.9856ZM127.461 47.0544C127.461 47.3115 127.426 47.5393 127.356 47.7376C127.288 47.936 127.188 48.1041 127.056 48.2418C126.925 48.3777 126.767 48.4806 126.582 48.5504C126.398 48.6202 126.19 48.6551 125.959 48.6551C125.742 48.6551 125.543 48.6202 125.361 48.5504C125.181 48.4806 125.024 48.3777 124.89 48.2418C124.758 48.1041 124.655 47.936 124.582 47.7376C124.51 47.5393 124.474 47.3115 124.474 47.0544C124.474 46.7128 124.535 46.4235 124.656 46.1865C124.777 45.9496 124.95 45.7696 125.174 45.6465C125.398 45.5235 125.665 45.462 125.976 45.462C126.264 45.462 126.519 45.5235 126.741 45.6465C126.966 45.7696 127.141 45.9496 127.268 46.1865C127.396 46.4235 127.461 46.7128 127.461 47.0544ZM125.331 47.0544C125.331 47.2564 125.353 47.4263 125.397 47.5641C125.441 47.7018 125.51 47.8056 125.604 47.8754C125.697 47.9452 125.819 47.9801 125.97 47.9801C126.119 47.9801 126.239 47.9452 126.331 47.8754C126.425 47.8056 126.493 47.7018 126.535 47.5641C126.579 47.4263 126.601 47.2564 126.601 47.0544C126.601 46.8505 126.579 46.6815 126.535 46.5475C126.493 46.4115 126.425 46.3096 126.331 46.2416C126.237 46.1737 126.115 46.1397 125.965 46.1397C125.742 46.1397 125.581 46.2159 125.48 46.3684C125.38 46.5208 125.331 46.7495 125.331 47.0544ZM131.37 45.462C131.699 45.462 131.963 45.552 132.163 45.732C132.364 45.9101 132.464 46.1966 132.464 46.5915V48.6H131.623V46.8009C131.623 46.5805 131.583 46.4143 131.502 46.3023C131.423 46.1902 131.298 46.1342 131.128 46.1342C130.87 46.1342 130.695 46.2214 130.601 46.3959C130.508 46.5704 130.461 46.822 130.461 47.1508V48.6H129.621V45.5198H130.262L130.375 45.9138H130.422C130.488 45.8073 130.57 45.7209 130.667 45.6548C130.767 45.5887 130.876 45.54 130.995 45.5088C131.117 45.4776 131.241 45.462 131.37 45.462ZM134.591 45.4564C135.004 45.4564 135.321 45.5464 135.541 45.7264C135.762 45.9064 135.872 46.1801 135.872 46.5475V48.6H135.285L135.122 48.1812H135.1C135.012 48.2914 134.922 48.3814 134.83 48.4512C134.739 48.521 134.633 48.5724 134.514 48.6055C134.394 48.6385 134.249 48.6551 134.078 48.6551C133.896 48.6551 133.733 48.6202 133.588 48.5504C133.445 48.4806 133.332 48.3741 133.249 48.2308C133.166 48.0857 133.125 47.902 133.125 47.6798C133.125 47.3528 133.24 47.1122 133.469 46.958C133.699 46.8018 134.043 46.7155 134.502 46.699L135.037 46.6825V46.5475C135.037 46.3858 134.995 46.2674 134.91 46.192C134.826 46.1167 134.708 46.0791 134.558 46.0791C134.409 46.0791 134.263 46.1002 134.12 46.1425C133.976 46.1847 133.833 46.238 133.69 46.3023L133.411 45.7347C133.575 45.6484 133.758 45.5804 133.96 45.5308C134.164 45.4812 134.374 45.4564 134.591 45.4564ZM135.037 47.1729L134.712 47.1839C134.44 47.1912 134.251 47.2399 134.144 47.3299C134.04 47.4199 133.987 47.5384 133.987 47.6853C133.987 47.8139 134.025 47.9057 134.1 47.9608C134.176 48.0141 134.274 48.0407 134.395 48.0407C134.575 48.0407 134.727 47.9874 134.85 47.8809C134.975 47.7744 135.037 47.6228 135.037 47.4263V47.1729ZM137.472 48.6L136.299 45.5198H137.178L137.773 47.2748C137.806 47.3776 137.832 47.486 137.85 47.5999C137.87 47.7138 137.884 47.8157 137.891 47.9057H137.913C137.919 47.8084 137.932 47.7046 137.952 47.5944C137.974 47.4842 138.002 47.3776 138.037 47.2748L138.63 45.5198H139.508L138.335 48.6H137.472ZM141.222 45.462C141.507 45.462 141.752 45.5171 141.958 45.6273C142.163 45.7356 142.322 45.8936 142.434 46.1011C142.546 46.3087 142.602 46.5621 142.602 46.8615V47.2693H140.616C140.625 47.5062 140.696 47.6926 140.828 47.8286C140.962 47.9626 141.148 48.0297 141.385 48.0297C141.581 48.0297 141.761 48.0095 141.925 47.9691C142.088 47.9287 142.256 47.868 142.429 47.7872V48.4374C142.276 48.5127 142.117 48.5678 141.949 48.6027C141.784 48.6376 141.583 48.6551 141.346 48.6551C141.038 48.6551 140.764 48.5981 140.525 48.4843C140.288 48.3704 140.102 48.1968 139.966 47.9636C139.832 47.7303 139.765 47.4364 139.765 47.0819C139.765 46.7219 139.825 46.4226 139.947 46.1838C140.07 45.9432 140.24 45.7632 140.459 45.6438C140.678 45.5226 140.932 45.462 141.222 45.462ZM141.228 46.0598C141.064 46.0598 140.928 46.1122 140.82 46.2168C140.713 46.3215 140.652 46.4859 140.635 46.71H141.814C141.813 46.5851 141.79 46.474 141.746 46.3766C141.703 46.2793 141.639 46.2022 141.553 46.1452C141.468 46.0883 141.36 46.0598 141.228 46.0598ZM144.187 49.9555C143.757 49.9555 143.428 49.8802 143.2 49.7296C142.974 49.5808 142.861 49.3714 142.861 49.1014C142.861 48.9159 142.919 48.7607 143.035 48.6358C143.151 48.5109 143.321 48.4218 143.545 48.3686C143.458 48.3318 143.383 48.2721 143.319 48.1895C143.254 48.105 143.222 48.0159 143.222 47.9222C143.222 47.8047 143.256 47.7073 143.324 47.6302C143.392 47.5512 143.49 47.4741 143.619 47.3988C143.457 47.329 143.329 47.2169 143.233 47.0626C143.14 46.9084 143.093 46.7265 143.093 46.5171C143.093 46.2931 143.141 46.103 143.239 45.9468C143.338 45.7889 143.481 45.6686 143.669 45.5859C143.858 45.5033 144.087 45.462 144.357 45.462C144.414 45.462 144.48 45.4656 144.556 45.473C144.631 45.4803 144.7 45.4886 144.762 45.4978C144.827 45.507 144.87 45.5143 144.892 45.5198H145.966V45.9468L145.484 46.0708C145.528 46.1388 145.561 46.2113 145.583 46.2885C145.605 46.3656 145.616 46.4474 145.616 46.5337C145.616 46.8643 145.501 47.1223 145.269 47.3078C145.04 47.4915 144.72 47.5834 144.311 47.5834C144.213 47.5778 144.121 47.5705 144.035 47.5613C143.993 47.5944 143.961 47.6293 143.939 47.666C143.917 47.7027 143.906 47.7413 143.906 47.7817C143.906 47.8221 143.922 47.8561 143.955 47.8837C143.99 47.9094 144.041 47.9296 144.109 47.9443C144.179 47.9571 144.266 47.9636 144.368 47.9636H144.892C145.23 47.9636 145.487 48.0361 145.663 48.1812C145.841 48.3263 145.931 48.5394 145.931 48.8204C145.931 49.1804 145.78 49.4596 145.479 49.6579C145.179 49.8563 144.749 49.9555 144.187 49.9555ZM144.222 49.4072C144.423 49.4072 144.594 49.3879 144.738 49.3494C144.883 49.3126 144.994 49.2594 145.071 49.1896C145.148 49.1216 145.187 49.0399 145.187 48.9444C145.187 48.8672 145.164 48.8057 145.118 48.7598C145.074 48.7157 145.006 48.6845 144.914 48.6661C144.824 48.6477 144.708 48.6385 144.567 48.6385H144.131C144.029 48.6385 143.936 48.6551 143.853 48.6881C143.772 48.7212 143.708 48.7671 143.66 48.8259C143.613 48.8865 143.589 48.9563 143.589 49.0353C143.589 49.151 143.644 49.2419 143.754 49.308C143.866 49.3741 144.022 49.4072 144.222 49.4072ZM144.357 47.0709C144.515 47.0709 144.631 47.0222 144.705 46.9249C144.778 46.8276 144.815 46.6953 144.815 46.5282C144.815 46.3427 144.776 46.204 144.699 46.1122C144.624 46.0185 144.51 45.9716 144.357 45.9716C144.203 45.9716 144.087 46.0185 144.01 46.1122C143.933 46.204 143.895 46.3427 143.895 46.5282C143.895 46.6953 143.932 46.8276 144.007 46.9249C144.085 47.0222 144.201 47.0709 144.357 47.0709ZM147.738 45.4564C148.151 45.4564 148.468 45.5464 148.688 45.7264C148.909 45.9064 149.019 46.1801 149.019 46.5475V48.6H148.432L148.27 48.1812H148.248C148.159 48.2914 148.069 48.3814 147.978 48.4512C147.886 48.521 147.78 48.5724 147.661 48.6055C147.541 48.6385 147.396 48.6551 147.225 48.6551C147.044 48.6551 146.88 48.6202 146.735 48.5504C146.592 48.4806 146.479 48.3741 146.396 48.2308C146.313 48.0857 146.272 47.902 146.272 47.6798C146.272 47.3528 146.387 47.1122 146.617 46.958C146.846 46.8018 147.19 46.7155 147.65 46.699L148.184 46.6825V46.5475C148.184 46.3858 148.142 46.2674 148.057 46.192C147.973 46.1167 147.855 46.0791 147.705 46.0791C147.556 46.0791 147.41 46.1002 147.267 46.1425C147.123 46.1847 146.98 46.238 146.837 46.3023L146.559 45.7347C146.722 45.6484 146.905 45.5804 147.107 45.5308C147.311 45.4812 147.521 45.4564 147.738 45.4564ZM148.184 47.1729L147.859 47.1839C147.587 47.1912 147.398 47.2399 147.292 47.3299C147.187 47.4199 147.134 47.5384 147.134 47.6853C147.134 47.8139 147.172 47.9057 147.247 47.9608C147.323 48.0141 147.421 48.0407 147.542 48.0407C147.722 48.0407 147.874 47.9874 147.997 47.8809C148.122 47.7744 148.184 47.6228 148.184 47.4263V47.1729ZM150.862 48.6551C150.519 48.6551 150.239 48.521 150.022 48.2528C149.807 47.9828 149.699 47.587 149.699 47.0654C149.699 46.5383 149.809 46.1397 150.027 45.8697C150.246 45.5979 150.531 45.462 150.884 45.462C151.031 45.462 151.161 45.4822 151.273 45.5226C151.385 45.563 151.481 45.6172 151.562 45.6851C151.645 45.7531 151.714 45.8293 151.771 45.9138H151.799C151.788 45.855 151.774 45.7687 151.757 45.6548C151.743 45.5391 151.735 45.4206 151.735 45.2994V44.3131H152.578V48.6H151.934L151.771 48.2005H151.735C151.682 48.285 151.615 48.3621 151.534 48.4319C151.455 48.4999 151.361 48.5541 151.251 48.5945C151.14 48.6349 151.011 48.6551 150.862 48.6551ZM151.157 47.9856C151.386 47.9856 151.548 47.9176 151.642 47.7817C151.737 47.644 151.788 47.4373 151.793 47.1618V47.0709C151.793 46.7715 151.747 46.5429 151.656 46.3849C151.564 46.2251 151.393 46.1452 151.143 46.1452C150.958 46.1452 150.812 46.2251 150.708 46.3849C150.603 46.5447 150.551 46.7752 150.551 47.0764C150.551 47.3776 150.603 47.6045 150.708 47.7569C150.814 47.9094 150.964 47.9856 151.157 47.9856ZM156.256 47.0544C156.256 47.3115 156.222 47.5393 156.152 47.7376C156.084 47.936 155.984 48.1041 155.851 48.2418C155.721 48.3777 155.563 48.4806 155.378 48.5504C155.194 48.6202 154.986 48.6551 154.755 48.6551C154.538 48.6551 154.339 48.6202 154.157 48.5504C153.977 48.4806 153.82 48.3777 153.686 48.2418C153.554 48.1041 153.451 47.936 153.377 47.7376C153.306 47.5393 153.27 47.3115 153.27 47.0544C153.27 46.7128 153.331 46.4235 153.452 46.1865C153.573 45.9496 153.746 45.7696 153.97 45.6465C154.194 45.5235 154.461 45.462 154.772 45.462C155.06 45.462 155.315 45.5235 155.537 45.6465C155.761 45.7696 155.937 45.9496 156.064 46.1865C156.192 46.4235 156.256 46.7128 156.256 47.0544ZM154.127 47.0544C154.127 47.2564 154.149 47.4263 154.193 47.5641C154.237 47.7018 154.306 47.8056 154.4 47.8754C154.493 47.9452 154.615 47.9801 154.766 47.9801C154.915 47.9801 155.035 47.9452 155.127 47.8754C155.221 47.8056 155.289 47.7018 155.331 47.5641C155.375 47.4263 155.397 47.2564 155.397 47.0544C155.397 46.8505 155.375 46.6815 155.331 46.5475C155.289 46.4115 155.221 46.3096 155.127 46.2416C155.033 46.1737 154.911 46.1397 154.76 46.1397C154.538 46.1397 154.377 46.2159 154.276 46.3684C154.176 46.5208 154.127 46.7495 154.127 47.0544ZM158.67 45.462C158.712 45.462 158.761 45.4647 158.816 45.4702C158.873 45.4739 158.919 45.4794 158.954 45.4868L158.89 46.2747C158.863 46.2655 158.823 46.2591 158.772 46.2554C158.722 46.2499 158.679 46.2471 158.642 46.2471C158.534 46.2471 158.428 46.2609 158.326 46.2885C158.225 46.316 158.134 46.361 158.053 46.4235C157.972 46.4841 157.908 46.5649 157.86 46.6659C157.814 46.7651 157.791 46.8872 157.791 47.0323V48.6H156.951V45.5198H157.587L157.711 46.0378H157.752C157.813 45.9331 157.888 45.8376 157.978 45.7512C158.07 45.6631 158.174 45.5933 158.29 45.5419C158.407 45.4886 158.534 45.462 158.67 45.462Z" fill="#009CB1"/>
<path d="M192.417 207.161C192.254 207.161 192.109 207.193 191.982 207.257C191.857 207.32 191.752 207.411 191.665 207.53C191.581 207.65 191.517 207.794 191.472 207.963C191.428 208.132 191.406 208.322 191.406 208.533C191.406 208.818 191.441 209.061 191.511 209.263C191.583 209.463 191.693 209.617 191.842 209.723C191.99 209.828 192.182 209.88 192.417 209.88C192.581 209.88 192.744 209.862 192.908 209.825C193.073 209.788 193.252 209.736 193.445 209.668V210.384C193.267 210.458 193.092 210.51 192.919 210.542C192.746 210.575 192.552 210.591 192.338 210.591C191.922 210.591 191.581 210.506 191.313 210.335C191.046 210.162 190.849 209.922 190.72 209.613C190.592 209.303 190.527 208.941 190.527 208.528C190.527 208.223 190.569 207.943 190.651 207.69C190.734 207.437 190.855 207.217 191.015 207.032C191.175 206.846 191.372 206.703 191.607 206.602C191.843 206.501 192.113 206.45 192.417 206.45C192.618 206.45 192.818 206.476 193.018 206.527C193.22 206.577 193.413 206.646 193.597 206.734L193.321 207.428C193.17 207.357 193.019 207.294 192.867 207.241C192.714 207.188 192.564 207.161 192.417 207.161ZM197.038 208.99C197.038 209.248 197.003 209.475 196.933 209.674C196.865 209.872 196.765 210.04 196.633 210.178C196.502 210.314 196.344 210.417 196.159 210.486C195.975 210.556 195.768 210.591 195.536 210.591C195.319 210.591 195.12 210.556 194.938 210.486C194.758 210.417 194.601 210.314 194.467 210.178C194.335 210.04 194.232 209.872 194.159 209.674C194.087 209.475 194.051 209.248 194.051 208.99C194.051 208.649 194.112 208.36 194.233 208.123C194.354 207.886 194.527 207.706 194.751 207.583C194.975 207.46 195.242 207.398 195.553 207.398C195.841 207.398 196.096 207.46 196.319 207.583C196.543 207.706 196.718 207.886 196.845 208.123C196.973 208.36 197.038 208.649 197.038 208.99ZM194.908 208.99C194.908 209.192 194.93 209.362 194.974 209.5C195.018 209.638 195.087 209.742 195.181 209.811C195.274 209.881 195.397 209.916 195.547 209.916C195.696 209.916 195.816 209.881 195.908 209.811C196.002 209.742 196.07 209.638 196.112 209.5C196.156 209.362 196.178 209.192 196.178 208.99C196.178 208.787 196.156 208.618 196.112 208.483C196.07 208.348 196.002 208.246 195.908 208.178C195.814 208.11 195.692 208.076 195.542 208.076C195.319 208.076 195.158 208.152 195.057 208.304C194.958 208.457 194.908 208.686 194.908 208.99ZM201.349 207.398C201.698 207.398 201.962 207.488 202.14 207.668C202.32 207.846 202.41 208.133 202.41 208.528V210.536H201.567V208.737C201.567 208.517 201.529 208.35 201.454 208.238C201.379 208.126 201.262 208.07 201.104 208.07C200.882 208.07 200.724 208.15 200.63 208.31C200.537 208.468 200.49 208.695 200.49 208.99V210.536H199.649V208.737C199.649 208.59 199.633 208.467 199.6 208.368C199.567 208.269 199.516 208.194 199.448 208.145C199.38 208.095 199.293 208.07 199.187 208.07C199.031 208.07 198.907 208.11 198.817 208.189C198.729 208.266 198.666 208.381 198.627 208.533C198.591 208.684 198.572 208.868 198.572 209.087V210.536H197.732V207.456H198.374L198.487 207.85H198.534C198.596 207.743 198.674 207.657 198.768 207.591C198.863 207.525 198.968 207.476 199.082 207.445C199.196 207.414 199.312 207.398 199.429 207.398C199.655 207.398 199.846 207.435 200.002 207.508C200.16 207.582 200.281 207.696 200.366 207.85H200.44C200.532 207.692 200.662 207.577 200.829 207.505C200.998 207.434 201.171 207.398 201.349 207.398ZM204.989 207.398C205.336 207.398 205.616 207.533 205.829 207.803C206.044 208.073 206.151 208.469 206.151 208.99C206.151 209.339 206.101 209.633 206 209.872C205.899 210.109 205.759 210.288 205.581 210.409C205.403 210.531 205.198 210.591 204.967 210.591C204.818 210.591 204.69 210.573 204.584 210.536C204.477 210.497 204.386 210.449 204.311 210.39C204.236 210.329 204.171 210.265 204.115 210.197H204.071C204.086 210.271 204.097 210.346 204.104 210.423C204.112 210.5 204.115 210.576 204.115 210.649V211.892H203.275V207.456H203.958L204.077 207.855H204.115C204.171 207.773 204.238 207.696 204.317 207.627C204.396 207.557 204.49 207.502 204.6 207.461C204.712 207.419 204.842 207.398 204.989 207.398ZM204.719 208.07C204.572 208.07 204.455 208.101 204.369 208.161C204.283 208.222 204.219 208.313 204.179 208.434C204.14 208.555 204.119 208.708 204.115 208.894V208.985C204.115 209.183 204.134 209.351 204.171 209.489C204.209 209.627 204.272 209.732 204.361 209.803C204.451 209.875 204.574 209.911 204.73 209.911C204.858 209.911 204.964 209.875 205.047 209.803C205.129 209.732 205.191 209.627 205.231 209.489C205.273 209.349 205.295 209.18 205.295 208.979C205.295 208.678 205.248 208.451 205.154 208.299C205.06 208.146 204.915 208.07 204.719 208.07ZM208.108 207.392C208.521 207.392 208.838 207.482 209.058 207.662C209.278 207.842 209.389 208.116 209.389 208.483V210.536H208.802L208.639 210.117H208.617C208.529 210.227 208.439 210.317 208.347 210.387C208.255 210.457 208.15 210.508 208.03 210.542C207.911 210.575 207.766 210.591 207.595 210.591C207.413 210.591 207.25 210.556 207.105 210.486C206.961 210.417 206.848 210.31 206.766 210.167C206.683 210.022 206.642 209.838 206.642 209.616C206.642 209.289 206.757 209.048 206.986 208.894C207.216 208.738 207.56 208.652 208.019 208.635L208.554 208.618V208.483C208.554 208.322 208.512 208.203 208.427 208.128C208.343 208.053 208.225 208.015 208.074 208.015C207.926 208.015 207.78 208.036 207.636 208.078C207.493 208.121 207.35 208.174 207.207 208.238L206.928 207.671C207.092 207.584 207.275 207.516 207.477 207.467C207.681 207.417 207.891 207.392 208.108 207.392ZM208.554 209.109L208.229 209.12C207.957 209.127 207.768 209.176 207.661 209.266C207.557 209.356 207.504 209.474 207.504 209.621C207.504 209.75 207.542 209.842 207.617 209.897C207.692 209.95 207.791 209.977 207.912 209.977C208.092 209.977 208.243 209.923 208.367 209.817C208.491 209.71 208.554 209.559 208.554 209.362V209.109ZM211.976 207.398C212.018 207.398 212.067 207.401 212.122 207.406C212.179 207.41 212.225 207.415 212.259 207.423L212.196 208.211C212.169 208.202 212.129 208.195 212.078 208.191C212.028 208.186 211.985 208.183 211.948 208.183C211.84 208.183 211.734 208.197 211.631 208.225C211.53 208.252 211.439 208.297 211.359 208.36C211.278 208.42 211.213 208.501 211.166 208.602C211.12 208.701 211.097 208.823 211.097 208.968V210.536H210.256V207.456H210.893L211.017 207.974H211.058C211.119 207.869 211.194 207.774 211.284 207.687C211.376 207.599 211.48 207.529 211.595 207.478C211.713 207.425 211.84 207.398 211.976 207.398ZM214.116 209.922C214.208 209.922 214.297 209.912 214.384 209.894C214.472 209.876 214.559 209.853 214.645 209.825V210.451C214.555 210.491 214.443 210.524 214.309 210.55C214.177 210.577 214.032 210.591 213.874 210.591C213.69 210.591 213.525 210.562 213.378 210.503C213.233 210.442 213.118 210.339 213.034 210.192C212.951 210.043 212.91 209.836 212.91 209.572V208.087H212.507V207.731L212.97 207.45L213.213 206.8H213.75V207.456H214.612V208.087H213.75V209.572C213.75 209.689 213.783 209.777 213.849 209.836C213.917 209.893 214.006 209.922 214.116 209.922ZM216.111 207.456V210.536H215.271V207.456H216.111ZM215.692 206.249C215.817 206.249 215.925 206.279 216.015 206.337C216.105 206.394 216.15 206.502 216.15 206.66C216.15 206.816 216.105 206.924 216.015 206.985C215.925 207.044 215.817 207.073 215.692 207.073C215.566 207.073 215.457 207.044 215.367 206.985C215.279 206.924 215.235 206.816 215.235 206.66C215.235 206.502 215.279 206.394 215.367 206.337C215.457 206.279 215.566 206.249 215.692 206.249ZM217.836 210.536H216.995V206.249H217.836V210.536ZM219.56 206.249V207.122C219.56 207.275 219.555 207.42 219.544 207.558C219.535 207.696 219.527 207.793 219.522 207.85H219.566C219.632 207.743 219.71 207.657 219.8 207.591C219.892 207.525 219.993 207.476 220.103 207.445C220.213 207.414 220.332 207.398 220.459 207.398C220.681 207.398 220.875 207.437 221.04 207.516C221.205 207.594 221.334 207.716 221.426 207.883C221.517 208.048 221.563 208.263 221.563 208.528V210.536H220.723V208.737C220.723 208.517 220.683 208.35 220.602 208.238C220.521 208.126 220.396 208.07 220.227 208.07C220.058 208.07 219.925 208.11 219.828 208.189C219.73 208.266 219.661 208.381 219.621 208.533C219.581 208.684 219.56 208.868 219.56 209.087V210.536H218.72V206.249H219.56ZM223.69 207.392C224.103 207.392 224.42 207.482 224.641 207.662C224.861 207.842 224.971 208.116 224.971 208.483V210.536H224.384L224.222 210.117H224.2C224.112 210.227 224.022 210.317 223.93 210.387C223.838 210.457 223.732 210.508 223.613 210.542C223.494 210.575 223.349 210.591 223.178 210.591C222.996 210.591 222.832 210.556 222.687 210.486C222.544 210.417 222.431 210.31 222.348 210.167C222.266 210.022 222.224 209.838 222.224 209.616C222.224 209.289 222.339 209.048 222.569 208.894C222.798 208.738 223.143 208.652 223.602 208.635L224.137 208.618V208.483C224.137 208.322 224.094 208.203 224.01 208.128C223.925 208.053 223.808 208.015 223.657 208.015C223.508 208.015 223.362 208.036 223.219 208.078C223.076 208.121 222.933 208.174 222.789 208.238L222.511 207.671C222.674 207.584 222.857 207.516 223.059 207.467C223.263 207.417 223.473 207.392 223.69 207.392ZM224.137 209.109L223.811 209.12C223.54 209.127 223.35 209.176 223.244 209.266C223.139 209.356 223.087 209.474 223.087 209.621C223.087 209.75 223.124 209.842 223.2 209.897C223.275 209.95 223.373 209.977 223.495 209.977C223.675 209.977 223.826 209.923 223.949 209.817C224.074 209.71 224.137 209.559 224.137 209.362V209.109ZM227.558 207.398C227.601 207.398 227.649 207.401 227.704 207.406C227.761 207.41 227.807 207.415 227.842 207.423L227.779 208.211C227.751 208.202 227.712 208.195 227.66 208.191C227.611 208.186 227.567 208.183 227.531 208.183C227.422 208.183 227.317 208.197 227.214 208.225C227.113 208.252 227.022 208.297 226.941 208.36C226.86 208.42 226.796 208.501 226.748 208.602C226.702 208.701 226.679 208.823 226.679 208.968V210.536H225.839V207.456H226.476L226.6 207.974H226.641C226.701 207.869 226.777 207.774 226.867 207.687C226.959 207.599 227.062 207.529 227.178 207.478C227.296 207.425 227.422 207.398 227.558 207.398Z" fill="white"/>
<path d="M188.463 49.7847C188.353 49.7847 188.256 49.7782 188.174 49.7654C188.089 49.7543 188.017 49.7406 187.959 49.724V49.0132C188.017 49.0261 188.081 49.038 188.149 49.0491C188.215 49.0619 188.286 49.0683 188.361 49.0683C188.46 49.0683 188.549 49.0491 188.628 49.0105C188.707 48.9737 188.77 48.903 188.815 48.7983C188.861 48.6936 188.884 48.543 188.884 48.3465V44.5721H189.738V48.341C189.738 48.6863 189.684 48.9646 189.576 49.1758C189.469 49.3888 189.32 49.5431 189.127 49.6386C188.936 49.736 188.714 49.7847 188.463 49.7847ZM191.948 45.4564C192.361 45.4564 192.678 45.5464 192.898 45.7264C193.119 45.9064 193.229 46.1801 193.229 46.5475V48.6H192.642L192.48 48.1812H192.458C192.37 48.2914 192.28 48.3814 192.188 48.4512C192.096 48.521 191.99 48.5724 191.871 48.6055C191.751 48.6385 191.606 48.6551 191.436 48.6551C191.254 48.6551 191.09 48.6202 190.945 48.5504C190.802 48.4806 190.689 48.3741 190.606 48.2308C190.524 48.0857 190.482 47.902 190.482 47.6798C190.482 47.3528 190.597 47.1122 190.827 46.958C191.056 46.8018 191.401 46.7155 191.86 46.699L192.394 46.6825V46.5475C192.394 46.3858 192.352 46.2674 192.268 46.192C192.183 46.1167 192.066 46.0791 191.915 46.0791C191.766 46.0791 191.62 46.1002 191.477 46.1425C191.334 46.1847 191.19 46.238 191.047 46.3023L190.769 45.7347C190.932 45.6484 191.115 45.5804 191.317 45.5308C191.521 45.4812 191.731 45.4564 191.948 45.4564ZM192.394 47.1729L192.069 47.1839C191.797 47.1912 191.608 47.2399 191.502 47.3299C191.397 47.4199 191.345 47.5384 191.345 47.6853C191.345 47.8139 191.382 47.9057 191.458 47.9608C191.533 48.0141 191.631 48.0407 191.752 48.0407C191.932 48.0407 192.084 47.9874 192.207 47.8809C192.332 47.7744 192.394 47.6228 192.394 47.4263V47.1729ZM195.846 45.462C196.175 45.462 196.44 45.552 196.64 45.732C196.84 45.9101 196.94 46.1966 196.94 46.5915V48.6H196.1V46.8009C196.1 46.5805 196.059 46.4143 195.979 46.3023C195.9 46.1902 195.775 46.1342 195.604 46.1342C195.347 46.1342 195.171 46.2214 195.078 46.3959C194.984 46.5704 194.937 46.822 194.937 47.1508V48.6H194.097V45.5198H194.739L194.852 45.9138H194.899C194.965 45.8073 195.047 45.7209 195.144 45.6548C195.243 45.5887 195.352 45.54 195.472 45.5088C195.593 45.4776 195.718 45.462 195.846 45.462ZM199.075 45.462C199.36 45.462 199.605 45.5171 199.811 45.6273C200.017 45.7356 200.176 45.8936 200.288 46.1011C200.4 46.3087 200.456 46.5621 200.456 46.8615V47.2693H198.469C198.478 47.5062 198.549 47.6926 198.681 47.8286C198.815 47.9626 199.001 48.0297 199.238 48.0297C199.434 48.0297 199.614 48.0095 199.778 47.9691C199.941 47.9287 200.109 47.868 200.282 47.7872V48.4374C200.13 48.5127 199.97 48.5678 199.803 48.6027C199.637 48.6376 199.436 48.6551 199.199 48.6551C198.891 48.6551 198.617 48.5981 198.378 48.4843C198.141 48.3704 197.955 48.1968 197.819 47.9636C197.685 47.7303 197.618 47.4364 197.618 47.0819C197.618 46.7219 197.679 46.4226 197.8 46.1838C197.923 45.9432 198.094 45.7632 198.312 45.6438C198.531 45.5226 198.785 45.462 199.075 45.462ZM199.081 46.0598C198.917 46.0598 198.781 46.1122 198.673 46.2168C198.567 46.3215 198.505 46.4859 198.489 46.71H199.668C199.666 46.5851 199.643 46.474 199.599 46.3766C199.557 46.2793 199.492 46.2022 199.406 46.1452C199.321 46.0883 199.213 46.0598 199.081 46.0598ZM201.979 48.6H201.139V44.3131H201.979V48.6ZM204.125 45.4564C204.539 45.4564 204.855 45.5464 205.076 45.7264C205.296 45.9064 205.406 46.1801 205.406 46.5475V48.6H204.82L204.657 48.1812H204.635C204.547 48.2914 204.457 48.3814 204.365 48.4512C204.273 48.521 204.168 48.5724 204.048 48.6055C203.929 48.6385 203.784 48.6551 203.613 48.6551C203.431 48.6551 203.268 48.6202 203.123 48.5504C202.979 48.4806 202.866 48.3741 202.784 48.2308C202.701 48.0857 202.66 47.902 202.66 47.6798C202.66 47.3528 202.774 47.1122 203.004 46.958C203.234 46.8018 203.578 46.7155 204.037 46.699L204.572 46.6825V46.5475C204.572 46.3858 204.529 46.2674 204.445 46.192C204.36 46.1167 204.243 46.0791 204.092 46.0791C203.944 46.0791 203.798 46.1002 203.654 46.1425C203.511 46.1847 203.368 46.238 203.224 46.3023L202.946 45.7347C203.11 45.6484 203.292 45.5804 203.494 45.5308C203.698 45.4812 203.909 45.4564 204.125 45.4564ZM204.572 47.1729L204.247 47.1839C203.975 47.1912 203.786 47.2399 203.679 47.3299C203.574 47.4199 203.522 47.5384 203.522 47.6853C203.522 47.8139 203.56 47.9057 203.635 47.9608C203.71 48.0141 203.809 48.0407 203.93 48.0407C204.11 48.0407 204.261 47.9874 204.384 47.8809C204.509 47.7744 204.572 47.6228 204.572 47.4263V47.1729Z" fill="#9CAEAF"/>
<path d="M239.202 48.6H238.348V45.2829H237.254V44.5721H240.296V45.2829H239.202V48.6ZM242.12 45.462C242.405 45.462 242.65 45.5171 242.855 45.6273C243.061 45.7356 243.22 45.8936 243.332 46.1011C243.444 46.3087 243.5 46.5621 243.5 46.8615V47.2693H241.514C241.523 47.5062 241.594 47.6926 241.726 47.8286C241.86 47.9626 242.045 48.0297 242.282 48.0297C242.479 48.0297 242.659 48.0095 242.822 47.9691C242.986 47.9287 243.154 47.868 243.327 47.7872V48.4374C243.174 48.5127 243.014 48.5678 242.847 48.6027C242.682 48.6376 242.481 48.6551 242.244 48.6551C241.935 48.6551 241.662 48.5981 241.423 48.4843C241.186 48.3704 240.999 48.1968 240.864 47.9636C240.729 47.7303 240.662 47.4364 240.662 47.0819C240.662 46.7219 240.723 46.4226 240.844 46.1838C240.967 45.9432 241.138 45.7632 241.357 45.6438C241.575 45.5226 241.83 45.462 242.12 45.462ZM242.125 46.0598C241.962 46.0598 241.826 46.1122 241.718 46.2168C241.611 46.3215 241.55 46.4859 241.533 46.71H242.712C242.71 46.5851 242.687 46.474 242.643 46.3766C242.601 46.2793 242.537 46.2022 242.45 46.1452C242.366 46.0883 242.258 46.0598 242.125 46.0598ZM245.024 48.6H244.183V44.3131H245.024V48.6ZM247.17 45.4564C247.583 45.4564 247.9 45.5464 248.12 45.7264C248.341 45.9064 248.451 46.1801 248.451 46.5475V48.6H247.864L247.702 48.1812H247.68C247.591 48.2914 247.501 48.3814 247.41 48.4512C247.318 48.521 247.212 48.5724 247.093 48.6055C246.973 48.6385 246.828 48.6551 246.657 48.6551C246.476 48.6551 246.312 48.6202 246.167 48.5504C246.024 48.4806 245.911 48.3741 245.828 48.2308C245.746 48.0857 245.704 47.902 245.704 47.6798C245.704 47.3528 245.819 47.1122 246.049 46.958C246.278 46.8018 246.623 46.7155 247.082 46.699L247.616 46.6825V46.5475C247.616 46.3858 247.574 46.2674 247.489 46.192C247.405 46.1167 247.287 46.0791 247.137 46.0791C246.988 46.0791 246.842 46.1002 246.699 46.1425C246.556 46.1847 246.412 46.238 246.269 46.3023L245.991 45.7347C246.154 45.6484 246.337 45.5804 246.539 45.5308C246.743 45.4812 246.953 45.4564 247.17 45.4564ZM247.616 47.1729L247.291 47.1839C247.019 47.1912 246.83 47.2399 246.724 47.3299C246.619 47.4199 246.567 47.5384 246.567 47.6853C246.567 47.8139 246.604 47.9057 246.679 47.9608C246.755 48.0141 246.853 48.0407 246.974 48.0407C247.154 48.0407 247.306 47.9874 247.429 47.8809C247.554 47.7744 247.616 47.6228 247.616 47.4263V47.1729ZM252.035 48.6551C251.73 48.6551 251.471 48.6 251.256 48.4898C251.041 48.3777 250.877 48.2051 250.765 47.9718C250.653 47.7386 250.597 47.4401 250.597 47.0764C250.597 46.6999 250.661 46.3932 250.787 46.1562C250.916 45.9175 251.093 45.7421 251.319 45.63C251.547 45.518 251.81 45.462 252.11 45.462C252.323 45.462 252.506 45.4831 252.661 45.5253C252.817 45.5657 252.953 45.6144 253.068 45.6713L252.821 46.3215C252.688 46.2683 252.565 46.2251 252.451 46.192C252.337 46.1572 252.224 46.1397 252.11 46.1397C251.963 46.1397 251.841 46.1746 251.743 46.2444C251.646 46.3124 251.573 46.4152 251.526 46.553C251.478 46.6907 251.454 46.8634 251.454 47.0709C251.454 47.2748 251.48 47.4438 251.531 47.5778C251.583 47.7119 251.657 47.812 251.754 47.8781C251.852 47.9424 251.97 47.9746 252.11 47.9746C252.284 47.9746 252.439 47.9516 252.575 47.9057C252.711 47.8579 252.843 47.7918 252.972 47.7073V48.4264C252.843 48.5072 252.708 48.5651 252.567 48.6C252.427 48.6367 252.25 48.6551 252.035 48.6551ZM254.529 44.3131V45.1864C254.529 45.3389 254.523 45.484 254.512 45.6217C254.503 45.7595 254.496 45.8568 254.49 45.9138H254.534C254.6 45.8073 254.678 45.7209 254.768 45.6548C254.86 45.5887 254.961 45.54 255.071 45.5088C255.182 45.4776 255.3 45.462 255.427 45.462C255.649 45.462 255.843 45.5014 256.008 45.5804C256.173 45.6576 256.302 45.7797 256.394 45.9468C256.486 46.1122 256.532 46.327 256.532 46.5915V48.6H255.691V46.8009C255.691 46.5805 255.651 46.4143 255.57 46.3023C255.489 46.1902 255.364 46.1342 255.195 46.1342C255.026 46.1342 254.893 46.1737 254.796 46.2527C254.699 46.3298 254.63 46.4446 254.589 46.597C254.549 46.7477 254.529 46.9322 254.529 47.1508V48.6H253.688V44.3131H254.529ZM258.667 45.462C258.951 45.462 259.197 45.5171 259.402 45.6273C259.608 45.7356 259.767 45.8936 259.879 46.1011C259.991 46.3087 260.047 46.5621 260.047 46.8615V47.2693H258.061C258.07 47.5062 258.141 47.6926 258.273 47.8286C258.407 47.9626 258.592 48.0297 258.829 48.0297C259.026 48.0297 259.206 48.0095 259.369 47.9691C259.533 47.9287 259.701 47.868 259.873 47.7872V48.4374C259.721 48.5127 259.561 48.5678 259.394 48.6027C259.229 48.6376 259.028 48.6551 258.791 48.6551C258.482 48.6551 258.209 48.5981 257.97 48.4843C257.733 48.3704 257.546 48.1968 257.41 47.9636C257.276 47.7303 257.209 47.4364 257.209 47.0819C257.209 46.7219 257.27 46.4226 257.391 46.1838C257.514 45.9432 257.685 45.7632 257.904 45.6438C258.122 45.5226 258.377 45.462 258.667 45.462ZM258.672 46.0598C258.509 46.0598 258.373 46.1122 258.265 46.2168C258.158 46.3215 258.096 46.4859 258.08 46.71H259.259C259.257 46.5851 259.234 46.474 259.19 46.3766C259.148 46.2793 259.084 46.2022 258.997 46.1452C258.913 46.0883 258.805 46.0598 258.672 46.0598ZM261.571 45.5198V48.6H260.73V45.5198H261.571ZM261.152 44.3131C261.277 44.3131 261.384 44.3425 261.474 44.4013C261.564 44.4582 261.609 44.5656 261.609 44.7236C261.609 44.8797 261.564 44.9881 261.474 45.0487C261.384 45.1075 261.277 45.1369 261.152 45.1369C261.025 45.1369 260.917 45.1075 260.827 45.0487C260.739 44.9881 260.695 44.8797 260.695 44.7236C260.695 44.5656 260.739 44.4582 260.827 44.4013C260.917 44.3425 261.025 44.3131 261.152 44.3131ZM263.717 45.4564C264.13 45.4564 264.447 45.5464 264.667 45.7264C264.888 45.9064 264.998 46.1801 264.998 46.5475V48.6H264.411L264.249 48.1812H264.227C264.138 48.2914 264.048 48.3814 263.957 48.4512C263.865 48.521 263.759 48.5724 263.64 48.6055C263.52 48.6385 263.375 48.6551 263.204 48.6551C263.023 48.6551 262.859 48.6202 262.714 48.5504C262.571 48.4806 262.458 48.3741 262.375 48.2308C262.292 48.0857 262.251 47.902 262.251 47.6798C262.251 47.3528 262.366 47.1122 262.596 46.958C262.825 46.8018 263.169 46.7155 263.629 46.699L264.163 46.6825V46.5475C264.163 46.3858 264.121 46.2674 264.036 46.192C263.952 46.1167 263.834 46.0791 263.684 46.0791C263.535 46.0791 263.389 46.1002 263.246 46.1425C263.102 46.1847 262.959 46.238 262.816 46.3023L262.538 45.7347C262.701 45.6484 262.884 45.5804 263.086 45.5308C263.29 45.4812 263.5 45.4564 263.717 45.4564ZM264.163 47.1729L263.838 47.1839C263.566 47.1912 263.377 47.2399 263.27 47.3299C263.166 47.4199 263.113 47.5384 263.113 47.6853C263.113 47.8139 263.151 47.9057 263.226 47.9608C263.302 48.0141 263.4 48.0407 263.521 48.0407C263.701 48.0407 263.853 47.9874 263.976 47.8809C264.101 47.7744 264.163 47.6228 264.163 47.4263V47.1729Z" fill="#9CAEAF"/>
<path d="M191.549 40.7687L190.799 41.7327L204.87 52.687L205.621 51.7231L191.549 40.7687Z" fill="#9CAEAF"/>
<path d="M244.87 40.7676L244.119 41.7316L258.191 52.6859L258.941 51.722L244.87 40.7676Z" fill="#9CAEAF"/>
<path d="M183.161 79.5566H125.487C122.872 79.5566 120.752 81.1987 120.752 83.2242C120.752 85.2497 122.872 86.8917 125.487 86.8917H183.161C185.776 86.8917 187.896 85.2497 187.896 83.2242C187.896 81.1987 185.776 79.5566 183.161 79.5566Z" fill="#D9EEEE"/>
<circle cx="113.7" cy="83.2251" r="3.94966" fill="#D9EEEE"/>
<path d="M183.161 122.158H125.487C122.872 122.158 120.752 123.8 120.752 125.826C120.752 127.851 122.872 129.493 125.487 129.493H183.161C185.776 129.493 187.896 127.851 187.896 125.826C187.896 123.8 185.776 122.158 183.161 122.158Z" fill="#D9EEEE"/>
<circle cx="113.7" cy="125.825" r="3.94966" fill="#D9EEEE"/>
<path d="M183.161 100.998H125.487C122.872 100.998 120.752 102.64 120.752 104.666C120.752 106.691 122.872 108.333 125.487 108.333H183.161C185.776 108.333 187.896 106.691 187.896 104.666C187.896 102.64 185.776 100.998 183.161 100.998Z" fill="#009CB1"/>
<circle cx="113.7" cy="104.95" r="3.94966" fill="#009CB1"/>
<path d="M183.161 143.598H125.487C122.872 143.598 120.752 145.24 120.752 147.265C120.752 149.291 122.872 150.933 125.487 150.933H183.161C185.776 150.933 187.896 149.291 187.896 147.265C187.896 145.24 185.776 143.598 183.161 143.598Z" fill="#D9EEEE"/>
<circle cx="113.7" cy="147.266" r="3.94966" fill="#D9EEEE"/>
<rect x="261.609" y="170.117" width="15.7986" height="9.0278" rx="4.5139" fill="#009CB1"/>
<path d="M276.28 174.631C276.28 176.657 274.638 178.299 272.613 178.299C270.587 178.299 268.945 176.657 268.945 174.631C268.945 172.606 270.587 170.964 272.613 170.964C274.638 170.964 276.28 172.606 276.28 174.631Z" fill="#E6F7FA"/>
<line x1="105.75" y1="52.5" x2="158.75" y2="52.5" stroke="#009CB1"/>
</g>
<path d="M325.25 174.5L281.75 174.5" stroke="#DF0961"/>
<rect x="23.75" y="88" width="36" height="33" rx="16.5" fill="#DF0961"/>
<path d="M44.2891 112H41.2715V103.738C41.2715 103.51 41.2747 103.23 41.2812 102.898C41.2878 102.56 41.2975 102.215 41.3105 101.863C41.3236 101.505 41.3366 101.183 41.3496 100.896C41.278 100.981 41.1315 101.128 40.9102 101.336C40.6953 101.538 40.4935 101.72 40.3047 101.883L38.6641 103.201L37.209 101.385L41.8086 97.7227H44.2891V112Z" fill="white"/>
<path d="M18.3418 137.242C18.3418 137.652 18.2383 137.998 18.0312 138.279C17.8281 138.557 17.5352 138.766 17.1523 138.906C16.7734 139.047 16.3203 139.117 15.793 139.117C15.3438 139.117 14.9551 139.082 14.627 139.012C14.2988 138.941 14.0117 138.842 13.7656 138.713V137.816C14.0273 137.945 14.3398 138.062 14.7031 138.168C15.0664 138.273 15.4375 138.326 15.8164 138.326C16.3711 138.326 16.7734 138.236 17.0234 138.057C17.2734 137.877 17.3984 137.633 17.3984 137.324C17.3984 137.148 17.3477 136.994 17.2461 136.861C17.1484 136.725 16.9824 136.594 16.748 136.469C16.5137 136.34 16.1895 136.199 15.7754 136.047C15.3652 135.891 15.0098 135.736 14.709 135.584C14.4121 135.428 14.1816 135.238 14.0176 135.016C13.8574 134.793 13.7773 134.504 13.7773 134.148C13.7773 133.605 13.9961 133.189 14.4336 132.9C14.875 132.607 15.4531 132.461 16.168 132.461C16.5547 132.461 16.916 132.5 17.252 132.578C17.5918 132.652 17.9082 132.754 18.2012 132.883L17.873 133.662C17.6074 133.549 17.3242 133.453 17.0234 133.375C16.7227 133.297 16.416 133.258 16.1035 133.258C15.6543 133.258 15.3086 133.332 15.0664 133.48C14.8281 133.629 14.709 133.832 14.709 134.09C14.709 134.289 14.7637 134.453 14.873 134.582C14.9863 134.711 15.166 134.832 15.4121 134.945C15.6582 135.059 15.9824 135.191 16.3848 135.344C16.7871 135.492 17.1348 135.646 17.4277 135.807C17.7207 135.963 17.9453 136.154 18.1016 136.381C18.2617 136.604 18.3418 136.891 18.3418 137.242ZM22.3789 132.461C22.9258 132.461 23.3945 132.582 23.7852 132.824C24.1758 133.066 24.4746 133.406 24.6816 133.844C24.8887 134.277 24.9922 134.785 24.9922 135.367V135.971H20.5566C20.5684 136.725 20.7559 137.299 21.1191 137.693C21.4824 138.088 21.9941 138.285 22.6543 138.285C23.0605 138.285 23.4199 138.248 23.7324 138.174C24.0449 138.1 24.3691 137.99 24.7051 137.846V138.701C24.3809 138.846 24.0586 138.951 23.7383 139.018C23.4219 139.084 23.0469 139.117 22.6133 139.117C21.9961 139.117 21.457 138.992 20.9961 138.742C20.5391 138.488 20.1836 138.117 19.9297 137.629C19.6758 137.141 19.5488 136.543 19.5488 135.836C19.5488 135.145 19.6641 134.547 19.8945 134.043C20.1289 133.535 20.457 133.145 20.8789 132.871C21.3047 132.598 21.8047 132.461 22.3789 132.461ZM22.3672 133.258C21.8477 133.258 21.4336 133.428 21.125 133.768C20.8164 134.107 20.6328 134.582 20.5742 135.191H23.9727C23.9688 134.809 23.9082 134.473 23.791 134.184C23.6777 133.891 23.5039 133.664 23.2695 133.504C23.0352 133.34 22.7344 133.258 22.3672 133.258ZM27.623 139H26.6445V129.883H27.623V139ZM32.1523 132.461C32.6992 132.461 33.168 132.582 33.5586 132.824C33.9492 133.066 34.248 133.406 34.4551 133.844C34.6621 134.277 34.7656 134.785 34.7656 135.367V135.971H30.3301C30.3418 136.725 30.5293 137.299 30.8926 137.693C31.2559 138.088 31.7676 138.285 32.4277 138.285C32.834 138.285 33.1934 138.248 33.5059 138.174C33.8184 138.1 34.1426 137.99 34.4785 137.846V138.701C34.1543 138.846 33.832 138.951 33.5117 139.018C33.1953 139.084 32.8203 139.117 32.3867 139.117C31.7695 139.117 31.2305 138.992 30.7695 138.742C30.3125 138.488 29.957 138.117 29.7031 137.629C29.4492 137.141 29.3223 136.543 29.3223 135.836C29.3223 135.145 29.4375 134.547 29.668 134.043C29.9023 133.535 30.2305 133.145 30.6523 132.871C31.0781 132.598 31.5781 132.461 32.1523 132.461ZM32.1406 133.258C31.6211 133.258 31.207 133.428 30.8984 133.768C30.5898 134.107 30.4062 134.582 30.3477 135.191H33.7461C33.7422 134.809 33.6816 134.473 33.5645 134.184C33.4512 133.891 33.2773 133.664 33.043 133.504C32.8086 133.34 32.5078 133.258 32.1406 133.258ZM38.9902 139.117C38.4121 139.117 37.9023 138.998 37.4609 138.76C37.0195 138.521 36.6758 138.158 36.4297 137.67C36.1836 137.182 36.0605 136.566 36.0605 135.824C36.0605 135.047 36.1895 134.412 36.4473 133.92C36.709 133.424 37.0684 133.057 37.5254 132.818C37.9824 132.58 38.502 132.461 39.084 132.461C39.4043 132.461 39.7129 132.494 40.0098 132.561C40.3105 132.623 40.5566 132.703 40.748 132.801L40.4551 133.615C40.2598 133.537 40.0332 133.467 39.7754 133.404C39.5215 133.342 39.2832 133.311 39.0605 133.311C38.6152 133.311 38.2441 133.406 37.9473 133.598C37.6543 133.789 37.4336 134.07 37.2852 134.441C37.1406 134.812 37.0684 135.27 37.0684 135.812C37.0684 136.332 37.1387 136.775 37.2793 137.143C37.4238 137.51 37.6367 137.791 37.918 137.986C38.2031 138.178 38.5586 138.273 38.9844 138.273C39.3242 138.273 39.6309 138.238 39.9043 138.168C40.1777 138.094 40.4258 138.008 40.6484 137.91V138.777C40.4336 138.887 40.1934 138.971 39.9277 139.029C39.666 139.088 39.3535 139.117 38.9902 139.117ZM43.1445 132.578V139H42.1719V132.578H43.1445ZM42.6699 130.176C42.8301 130.176 42.9668 130.229 43.0801 130.334C43.1973 130.436 43.2559 130.596 43.2559 130.814C43.2559 131.029 43.1973 131.189 43.0801 131.295C42.9668 131.4 42.8301 131.453 42.6699 131.453C42.502 131.453 42.3613 131.4 42.248 131.295C42.1387 131.189 42.084 131.029 42.084 130.814C42.084 130.596 42.1387 130.436 42.248 130.334C42.3613 130.229 42.502 130.176 42.6699 130.176ZM50.7441 135.777C50.7441 136.305 50.6758 136.775 50.5391 137.189C50.4023 137.604 50.2051 137.953 49.9473 138.238C49.6895 138.523 49.377 138.742 49.0098 138.895C48.6465 139.043 48.2344 139.117 47.7734 139.117C47.3438 139.117 46.9492 139.043 46.5898 138.895C46.2344 138.742 45.9258 138.523 45.6641 138.238C45.4062 137.953 45.2051 137.604 45.0605 137.189C44.9199 136.775 44.8496 136.305 44.8496 135.777C44.8496 135.074 44.9688 134.477 45.207 133.984C45.4453 133.488 45.7852 133.111 46.2266 132.854C46.6719 132.592 47.2012 132.461 47.8145 132.461C48.4004 132.461 48.9121 132.592 49.3496 132.854C49.791 133.115 50.1328 133.494 50.375 133.99C50.6211 134.482 50.7441 135.078 50.7441 135.777ZM45.8574 135.777C45.8574 136.293 45.9258 136.74 46.0625 137.119C46.1992 137.498 46.4102 137.791 46.6953 137.998C46.9805 138.205 47.3477 138.309 47.7969 138.309C48.2422 138.309 48.6074 138.205 48.8926 137.998C49.1816 137.791 49.3945 137.498 49.5312 137.119C49.668 136.74 49.7363 136.293 49.7363 135.777C49.7363 135.266 49.668 134.824 49.5312 134.453C49.3945 134.078 49.1836 133.789 48.8984 133.586C48.6133 133.383 48.2441 133.281 47.791 133.281C47.123 133.281 46.6328 133.502 46.3203 133.943C46.0117 134.385 45.8574 134.996 45.8574 135.777ZM55.4668 132.461C56.2285 132.461 56.8047 132.648 57.1953 133.023C57.5859 133.395 57.7812 133.992 57.7812 134.816V139H56.8203V134.881C56.8203 134.346 56.6973 133.945 56.4512 133.68C56.209 133.414 55.8359 133.281 55.332 133.281C54.6211 133.281 54.1211 133.482 53.832 133.885C53.543 134.287 53.3984 134.871 53.3984 135.637V139H52.4258V132.578H53.2109L53.3574 133.504H53.4102C53.5469 133.277 53.7207 133.088 53.9316 132.936C54.1426 132.779 54.3789 132.662 54.6406 132.584C54.9023 132.502 55.1777 132.461 55.4668 132.461ZM62.1875 132.473C62.9531 132.473 63.5215 132.645 63.8926 132.988C64.2637 133.332 64.4492 133.881 64.4492 134.635V139H63.7402L63.5527 138.051H63.5059C63.3262 138.285 63.1387 138.482 62.9434 138.643C62.748 138.799 62.5215 138.918 62.2637 139C62.0098 139.078 61.6973 139.117 61.3262 139.117C60.9355 139.117 60.5879 139.049 60.2832 138.912C59.9824 138.775 59.7441 138.568 59.5684 138.291C59.3965 138.014 59.3105 137.662 59.3105 137.236C59.3105 136.596 59.5645 136.104 60.0723 135.76C60.5801 135.416 61.3535 135.229 62.3926 135.197L63.5 135.15V134.758C63.5 134.203 63.3809 133.814 63.1426 133.592C62.9043 133.369 62.5684 133.258 62.1348 133.258C61.7988 133.258 61.4785 133.307 61.1738 133.404C60.8691 133.502 60.5801 133.617 60.3066 133.75L60.0078 133.012C60.2969 132.863 60.6289 132.736 61.0039 132.631C61.3789 132.525 61.7734 132.473 62.1875 132.473ZM63.4883 135.836L62.5098 135.877C61.709 135.908 61.1445 136.039 60.8164 136.27C60.4883 136.5 60.3242 136.826 60.3242 137.248C60.3242 137.615 60.4355 137.887 60.6582 138.062C60.8809 138.238 61.1758 138.326 61.543 138.326C62.1133 138.326 62.5801 138.168 62.9434 137.852C63.3066 137.535 63.4883 137.061 63.4883 136.428V135.836ZM69.3711 132.461C69.5 132.461 69.6348 132.469 69.7754 132.484C69.916 132.496 70.041 132.514 70.1504 132.537L70.0273 133.439C69.9219 133.412 69.8047 133.391 69.6758 133.375C69.5469 133.359 69.4258 133.352 69.3125 133.352C69.0547 133.352 68.8105 133.404 68.5801 133.51C68.3535 133.611 68.1543 133.76 67.9824 133.955C67.8105 134.146 67.6758 134.379 67.5781 134.652C67.4805 134.922 67.4316 135.223 67.4316 135.555V139H66.4531V132.578H67.2617L67.3672 133.762H67.4082C67.541 133.523 67.7012 133.307 67.8887 133.111C68.0762 132.912 68.293 132.754 68.5391 132.637C68.7891 132.52 69.0664 132.461 69.3711 132.461ZM17.1172 155.883C16.2734 155.883 15.623 155.725 15.166 155.408C14.709 155.096 14.4805 154.656 14.4805 154.09C14.4805 153.688 14.6074 153.344 14.8613 153.059C15.1191 152.773 15.4746 152.584 15.9277 152.49C15.7598 152.412 15.6152 152.295 15.4941 152.139C15.377 151.982 15.3184 151.803 15.3184 151.6C15.3184 151.365 15.3828 151.16 15.5117 150.984C15.6445 150.805 15.8457 150.633 16.1152 150.469C15.7793 150.332 15.5059 150.102 15.2949 149.777C15.0879 149.449 14.9844 149.068 14.9844 148.635C14.9844 148.174 15.0801 147.781 15.2715 147.457C15.4629 147.129 15.7402 146.879 16.1035 146.707C16.4668 146.535 16.9062 146.449 17.4219 146.449C17.5352 146.449 17.6484 146.455 17.7617 146.467C17.8789 146.475 17.9902 146.488 18.0957 146.508C18.2012 146.523 18.293 146.543 18.3711 146.566H20.5742V147.193L19.3906 147.34C19.5078 147.492 19.6055 147.676 19.6836 147.891C19.7617 148.105 19.8008 148.344 19.8008 148.605C19.8008 149.246 19.584 149.756 19.1504 150.135C18.7168 150.51 18.1211 150.697 17.3633 150.697C17.1836 150.697 17 150.682 16.8125 150.65C16.6211 150.756 16.4746 150.873 16.373 151.002C16.2754 151.131 16.2266 151.279 16.2266 151.447C16.2266 151.572 16.2637 151.672 16.3379 151.746C16.416 151.82 16.5273 151.875 16.6719 151.91C16.8164 151.941 16.9902 151.957 17.1934 151.957H18.3242C19.0234 151.957 19.5586 152.104 19.9297 152.396C20.3047 152.689 20.4922 153.117 20.4922 153.68C20.4922 154.391 20.2031 154.936 19.625 155.314C19.0469 155.693 18.2109 155.883 17.1172 155.883ZM17.1465 155.121C17.6777 155.121 18.1172 155.066 18.4648 154.957C18.8164 154.852 19.0781 154.697 19.25 154.494C19.4258 154.295 19.5137 154.057 19.5137 153.779C19.5137 153.521 19.4551 153.326 19.3379 153.193C19.2207 153.064 19.0488 152.979 18.8223 152.936C18.5957 152.889 18.3184 152.865 17.9902 152.865H16.877C16.5879 152.865 16.3359 152.91 16.1211 153C15.9062 153.09 15.7402 153.223 15.623 153.398C15.5098 153.574 15.4531 153.793 15.4531 154.055C15.4531 154.402 15.5996 154.666 15.8926 154.846C16.1855 155.029 16.6035 155.121 17.1465 155.121ZM17.3984 149.988C17.8633 149.988 18.2129 149.871 18.4473 149.637C18.6816 149.402 18.7988 149.061 18.7988 148.611C18.7988 148.131 18.6797 147.771 18.4414 147.533C18.2031 147.291 17.8516 147.17 17.3867 147.17C16.9414 147.17 16.5977 147.295 16.3555 147.545C16.1172 147.791 15.998 148.152 15.998 148.629C15.998 149.066 16.1191 149.402 16.3613 149.637C16.6035 149.871 16.9492 149.988 17.3984 149.988ZM27.1426 146.578V153H26.3457L26.2051 152.098H26.1523C26.0195 152.32 25.8477 152.508 25.6367 152.66C25.4258 152.812 25.1875 152.926 24.9219 153C24.6602 153.078 24.3809 153.117 24.084 153.117C23.5762 153.117 23.1504 153.035 22.8066 152.871C22.4629 152.707 22.2031 152.453 22.0273 152.109C21.8555 151.766 21.7695 151.324 21.7695 150.785V146.578H22.7539V150.715C22.7539 151.25 22.875 151.65 23.1172 151.916C23.3594 152.178 23.7285 152.309 24.2246 152.309C24.7012 152.309 25.0801 152.219 25.3613 152.039C25.6465 151.859 25.8516 151.596 25.9766 151.248C26.1016 150.896 26.1641 150.467 26.1641 149.959V146.578H27.1426ZM30.1719 146.578V153H29.1992V146.578H30.1719ZM29.6973 144.176C29.8574 144.176 29.9941 144.229 30.1074 144.334C30.2246 144.436 30.2832 144.596 30.2832 144.814C30.2832 145.029 30.2246 145.189 30.1074 145.295C29.9941 145.4 29.8574 145.453 29.6973 145.453C29.5293 145.453 29.3887 145.4 29.2754 145.295C29.166 145.189 29.1113 145.029 29.1113 144.814C29.1113 144.596 29.166 144.436 29.2754 144.334C29.3887 144.229 29.5293 144.176 29.6973 144.176ZM34.6367 146.473C35.4023 146.473 35.9707 146.645 36.3418 146.988C36.7129 147.332 36.8984 147.881 36.8984 148.635V153H36.1895L36.002 152.051H35.9551C35.7754 152.285 35.5879 152.482 35.3926 152.643C35.1973 152.799 34.9707 152.918 34.7129 153C34.459 153.078 34.1465 153.117 33.7754 153.117C33.3848 153.117 33.0371 153.049 32.7324 152.912C32.4316 152.775 32.1934 152.568 32.0176 152.291C31.8457 152.014 31.7598 151.662 31.7598 151.236C31.7598 150.596 32.0137 150.104 32.5215 149.76C33.0293 149.416 33.8027 149.229 34.8418 149.197L35.9492 149.15V148.758C35.9492 148.203 35.8301 147.814 35.5918 147.592C35.3535 147.369 35.0176 147.258 34.584 147.258C34.248 147.258 33.9277 147.307 33.623 147.404C33.3184 147.502 33.0293 147.617 32.7559 147.75L32.457 147.012C32.7461 146.863 33.0781 146.736 33.4531 146.631C33.8281 146.525 34.2227 146.473 34.6367 146.473ZM35.9375 149.836L34.959 149.877C34.1582 149.908 33.5938 150.039 33.2656 150.27C32.9375 150.5 32.7734 150.826 32.7734 151.248C32.7734 151.615 32.8848 151.887 33.1074 152.062C33.3301 152.238 33.625 152.326 33.9922 152.326C34.5625 152.326 35.0293 152.168 35.3926 151.852C35.7559 151.535 35.9375 151.061 35.9375 150.428V149.836ZM45.2656 144.434L42.0781 153H41.1172L44.3105 144.434H45.2656ZM51.9453 146.473C52.7109 146.473 53.2793 146.645 53.6504 146.988C54.0215 147.332 54.207 147.881 54.207 148.635V153H53.498L53.3105 152.051H53.2637C53.084 152.285 52.8965 152.482 52.7012 152.643C52.5059 152.799 52.2793 152.918 52.0215 153C51.7676 153.078 51.4551 153.117 51.084 153.117C50.6934 153.117 50.3457 153.049 50.041 152.912C49.7402 152.775 49.502 152.568 49.3262 152.291C49.1543 152.014 49.0684 151.662 49.0684 151.236C49.0684 150.596 49.3223 150.104 49.8301 149.76C50.3379 149.416 51.1113 149.229 52.1504 149.197L53.2578 149.15V148.758C53.2578 148.203 53.1387 147.814 52.9004 147.592C52.6621 147.369 52.3262 147.258 51.8926 147.258C51.5566 147.258 51.2363 147.307 50.9316 147.404C50.627 147.502 50.3379 147.617 50.0645 147.75L49.7656 147.012C50.0547 146.863 50.3867 146.736 50.7617 146.631C51.1367 146.525 51.5312 146.473 51.9453 146.473ZM53.2461 149.836L52.2676 149.877C51.4668 149.908 50.9023 150.039 50.5742 150.27C50.2461 150.5 50.082 150.826 50.082 151.248C50.082 151.615 50.1934 151.887 50.416 152.062C50.6387 152.238 50.9336 152.326 51.3008 152.326C51.8711 152.326 52.3379 152.168 52.7012 151.852C53.0645 151.535 53.2461 151.061 53.2461 150.428V149.836ZM57.1836 143.883V146.162C57.1836 146.424 57.1758 146.678 57.1602 146.924C57.1484 147.17 57.1387 147.361 57.1309 147.498H57.1836C57.3594 147.209 57.6133 146.965 57.9453 146.766C58.2773 146.566 58.7012 146.467 59.2168 146.467C60.0215 146.467 60.6621 146.746 61.1387 147.305C61.6191 147.859 61.8594 148.686 61.8594 149.783C61.8594 150.506 61.75 151.115 61.5312 151.611C61.3125 152.107 61.0039 152.482 60.6055 152.736C60.207 152.99 59.7363 153.117 59.1934 153.117C58.6855 153.117 58.2676 153.023 57.9395 152.836C57.6152 152.645 57.3652 152.412 57.1895 152.139H57.1133L56.9141 153H56.2109V143.883H57.1836ZM59.0586 147.281C58.5938 147.281 58.2246 147.373 57.9512 147.557C57.6777 147.736 57.4805 148.01 57.3594 148.377C57.2422 148.74 57.1836 149.201 57.1836 149.76V149.812C57.1836 150.621 57.3184 151.24 57.5879 151.67C57.8574 152.096 58.3477 152.309 59.0586 152.309C59.6562 152.309 60.1035 152.09 60.4004 151.652C60.7012 151.215 60.8516 150.59 60.8516 149.777C60.8516 148.949 60.7031 148.326 60.4062 147.908C60.1133 147.49 59.6641 147.281 59.0586 147.281ZM65.9609 146.473C66.7266 146.473 67.2949 146.645 67.666 146.988C68.0371 147.332 68.2227 147.881 68.2227 148.635V153H67.5137L67.3262 152.051H67.2793C67.0996 152.285 66.9121 152.482 66.7168 152.643C66.5215 152.799 66.2949 152.918 66.0371 153C65.7832 153.078 65.4707 153.117 65.0996 153.117C64.709 153.117 64.3613 153.049 64.0566 152.912C63.7559 152.775 63.5176 152.568 63.3418 152.291C63.1699 152.014 63.084 151.662 63.084 151.236C63.084 150.596 63.3379 150.104 63.8457 149.76C64.3535 149.416 65.127 149.229 66.166 149.197L67.2734 149.15V148.758C67.2734 148.203 67.1543 147.814 66.916 147.592C66.6777 147.369 66.3418 147.258 65.9082 147.258C65.5723 147.258 65.252 147.307 64.9473 147.404C64.6426 147.502 64.3535 147.617 64.0801 147.75L63.7812 147.012C64.0703 146.863 64.4023 146.736 64.7773 146.631C65.1523 146.525 65.5469 146.473 65.9609 146.473ZM67.2617 149.836L66.2832 149.877C65.4824 149.908 64.918 150.039 64.5898 150.27C64.2617 150.5 64.0977 150.826 64.0977 151.248C64.0977 151.615 64.209 151.887 64.4316 152.062C64.6543 152.238 64.9492 152.326 65.3164 152.326C65.8867 152.326 66.3535 152.168 66.7168 151.852C67.0801 151.535 67.2617 151.061 67.2617 150.428V149.836Z" fill="#DF0961"/>
<rect x="24.25" y="190" width="36" height="33" rx="16.5" fill="#DF0961"/>
<path d="M46.752 202.916C46.752 203.574 46.6152 204.143 46.3418 204.625C46.0684 205.107 45.6973 205.501 45.2285 205.807C44.7663 206.113 44.2454 206.337 43.666 206.48V206.539C44.8118 206.682 45.681 207.034 46.2734 207.594C46.8724 208.154 47.1719 208.902 47.1719 209.84C47.1719 210.673 46.9668 211.419 46.5566 212.076C46.153 212.734 45.528 213.251 44.6816 213.629C43.8353 214.007 42.7448 214.195 41.4102 214.195C40.6224 214.195 39.8867 214.13 39.2031 214C38.526 213.876 37.888 213.684 37.2891 213.424V210.855C37.901 211.168 38.5423 211.406 39.2129 211.568C39.8835 211.725 40.5085 211.803 41.0879 211.803C42.1686 211.803 42.9238 211.617 43.3535 211.246C43.7897 210.868 44.0078 210.341 44.0078 209.664C44.0078 209.267 43.9069 208.932 43.7051 208.658C43.5033 208.385 43.1517 208.176 42.6504 208.033C42.1556 207.89 41.4622 207.818 40.5703 207.818H39.4863V205.504H40.5898C41.4688 205.504 42.1361 205.423 42.5918 205.26C43.054 205.09 43.3665 204.863 43.5293 204.576C43.6986 204.283 43.7832 203.951 43.7832 203.58C43.7832 203.072 43.627 202.675 43.3145 202.389C43.002 202.102 42.4811 201.959 41.752 201.959C41.2962 201.959 40.8796 202.018 40.502 202.135C40.1309 202.245 39.7956 202.382 39.4961 202.545C39.1966 202.701 38.9329 202.854 38.7051 203.004L37.3086 200.924C37.8685 200.52 38.5228 200.185 39.2715 199.918C40.0267 199.651 40.9251 199.518 41.9668 199.518C43.4382 199.518 44.6035 199.814 45.4629 200.406C46.3223 200.999 46.752 201.835 46.752 202.916Z" fill="white"/>
<path d="M9.70117 241.117C9.12305 241.117 8.61328 240.998 8.17188 240.76C7.73047 240.521 7.38672 240.158 7.14062 239.67C6.89453 239.182 6.77148 238.566 6.77148 237.824C6.77148 237.047 6.90039 236.412 7.1582 235.92C7.41992 235.424 7.7793 235.057 8.23633 234.818C8.69336 234.58 9.21289 234.461 9.79492 234.461C10.1152 234.461 10.4238 234.494 10.7207 234.561C11.0215 234.623 11.2676 234.703 11.459 234.801L11.166 235.615C10.9707 235.537 10.7441 235.467 10.4863 235.404C10.2324 235.342 9.99414 235.311 9.77148 235.311C9.32617 235.311 8.95508 235.406 8.6582 235.598C8.36523 235.789 8.14453 236.07 7.99609 236.441C7.85156 236.812 7.7793 237.27 7.7793 237.812C7.7793 238.332 7.84961 238.775 7.99023 239.143C8.13477 239.51 8.34766 239.791 8.62891 239.986C8.91406 240.178 9.26953 240.273 9.69531 240.273C10.0352 240.273 10.3418 240.238 10.6152 240.168C10.8887 240.094 11.1367 240.008 11.3594 239.91V240.777C11.1445 240.887 10.9043 240.971 10.6387 241.029C10.377 241.088 10.0645 241.117 9.70117 241.117ZM18.4199 237.777C18.4199 238.305 18.3516 238.775 18.2148 239.189C18.0781 239.604 17.8809 239.953 17.623 240.238C17.3652 240.523 17.0527 240.742 16.6855 240.895C16.3223 241.043 15.9102 241.117 15.4492 241.117C15.0195 241.117 14.625 241.043 14.2656 240.895C13.9102 240.742 13.6016 240.523 13.3398 240.238C13.082 239.953 12.8809 239.604 12.7363 239.189C12.5957 238.775 12.5254 238.305 12.5254 237.777C12.5254 237.074 12.6445 236.477 12.8828 235.984C13.1211 235.488 13.4609 235.111 13.9023 234.854C14.3477 234.592 14.877 234.461 15.4902 234.461C16.0762 234.461 16.5879 234.592 17.0254 234.854C17.4668 235.115 17.8086 235.494 18.0508 235.99C18.2969 236.482 18.4199 237.078 18.4199 237.777ZM13.5332 237.777C13.5332 238.293 13.6016 238.74 13.7383 239.119C13.875 239.498 14.0859 239.791 14.3711 239.998C14.6562 240.205 15.0234 240.309 15.4727 240.309C15.918 240.309 16.2832 240.205 16.5684 239.998C16.8574 239.791 17.0703 239.498 17.207 239.119C17.3438 238.74 17.4121 238.293 17.4121 237.777C17.4121 237.266 17.3438 236.824 17.207 236.453C17.0703 236.078 16.8594 235.789 16.5742 235.586C16.2891 235.383 15.9199 235.281 15.4668 235.281C14.7988 235.281 14.3086 235.502 13.9961 235.943C13.6875 236.385 13.5332 236.996 13.5332 237.777ZM27.0742 234.461C27.7812 234.461 28.3145 234.646 28.6738 235.018C29.0332 235.385 29.2129 235.977 29.2129 236.793V241H28.252V236.84C28.252 236.32 28.1387 235.932 27.9121 235.674C27.6895 235.412 27.3574 235.281 26.916 235.281C26.2949 235.281 25.8438 235.461 25.5625 235.82C25.2812 236.18 25.1406 236.709 25.1406 237.408V241H24.1738V236.84C24.1738 236.492 24.123 236.203 24.0215 235.973C23.9238 235.742 23.7754 235.57 23.5762 235.457C23.3809 235.34 23.1328 235.281 22.832 235.281C22.4062 235.281 22.0645 235.369 21.8066 235.545C21.5488 235.721 21.3613 235.982 21.2441 236.33C21.1309 236.674 21.0742 237.098 21.0742 237.602V241H20.1016V234.578H20.8867L21.0332 235.486H21.0859C21.2148 235.264 21.377 235.076 21.5723 234.924C21.7676 234.771 21.9863 234.656 22.2285 234.578C22.4707 234.5 22.7285 234.461 23.002 234.461C23.4902 234.461 23.8984 234.553 24.2266 234.736C24.5586 234.916 24.7988 235.191 24.9473 235.562H25C25.2109 235.191 25.5 234.916 25.8672 234.736C26.2344 234.553 26.6367 234.461 27.0742 234.461ZM34.2285 234.461C35.0293 234.461 35.668 234.736 36.1445 235.287C36.6211 235.838 36.8594 236.666 36.8594 237.771C36.8594 238.502 36.75 239.115 36.5312 239.611C36.3125 240.107 36.0039 240.482 35.6055 240.736C35.2109 240.99 34.7441 241.117 34.2051 241.117C33.8652 241.117 33.5664 241.072 33.3086 240.982C33.0508 240.893 32.8301 240.771 32.6465 240.619C32.4629 240.467 32.3105 240.301 32.1895 240.121H32.1191C32.1309 240.273 32.1445 240.457 32.1602 240.672C32.1797 240.887 32.1895 241.074 32.1895 241.234V243.871H31.2109V234.578H32.0137L32.1426 235.527H32.1895C32.3145 235.332 32.4668 235.154 32.6465 234.994C32.8262 234.83 33.0449 234.701 33.3027 234.607C33.5645 234.51 33.873 234.461 34.2285 234.461ZM34.0586 235.281C33.6133 235.281 33.2539 235.367 32.9805 235.539C32.7109 235.711 32.5137 235.969 32.3887 236.312C32.2637 236.652 32.1973 237.08 32.1895 237.596V237.783C32.1895 238.326 32.248 238.785 32.3652 239.16C32.4863 239.535 32.6836 239.82 32.957 240.016C33.2344 240.211 33.6055 240.309 34.0703 240.309C34.4688 240.309 34.8008 240.201 35.0664 239.986C35.332 239.771 35.5293 239.473 35.6582 239.09C35.791 238.703 35.8574 238.26 35.8574 237.76C35.8574 237.002 35.709 236.4 35.4121 235.955C35.1191 235.506 34.668 235.281 34.0586 235.281ZM40.9609 234.473C41.7266 234.473 42.2949 234.645 42.666 234.988C43.0371 235.332 43.2227 235.881 43.2227 236.635V241H42.5137L42.3262 240.051H42.2793C42.0996 240.285 41.9121 240.482 41.7168 240.643C41.5215 240.799 41.2949 240.918 41.0371 241C40.7832 241.078 40.4707 241.117 40.0996 241.117C39.709 241.117 39.3613 241.049 39.0566 240.912C38.7559 240.775 38.5176 240.568 38.3418 240.291C38.1699 240.014 38.084 239.662 38.084 239.236C38.084 238.596 38.3379 238.104 38.8457 237.76C39.3535 237.416 40.127 237.229 41.166 237.197L42.2734 237.15V236.758C42.2734 236.203 42.1543 235.814 41.916 235.592C41.6777 235.369 41.3418 235.258 40.9082 235.258C40.5723 235.258 40.252 235.307 39.9473 235.404C39.6426 235.502 39.3535 235.617 39.0801 235.75L38.7812 235.012C39.0703 234.863 39.4023 234.736 39.7773 234.631C40.1523 234.525 40.5469 234.473 40.9609 234.473ZM42.2617 237.836L41.2832 237.877C40.4824 237.908 39.918 238.039 39.5898 238.27C39.2617 238.5 39.0977 238.826 39.0977 239.248C39.0977 239.615 39.209 239.887 39.4316 240.062C39.6543 240.238 39.9492 240.326 40.3164 240.326C40.8867 240.326 41.3535 240.168 41.7168 239.852C42.0801 239.535 42.2617 239.061 42.2617 238.428V237.836ZM48.1445 234.461C48.2734 234.461 48.4082 234.469 48.5488 234.484C48.6895 234.496 48.8145 234.514 48.9238 234.537L48.8008 235.439C48.6953 235.412 48.5781 235.391 48.4492 235.375C48.3203 235.359 48.1992 235.352 48.0859 235.352C47.8281 235.352 47.584 235.404 47.3535 235.51C47.127 235.611 46.9277 235.76 46.7559 235.955C46.584 236.146 46.4492 236.379 46.3516 236.652C46.2539 236.922 46.2051 237.223 46.2051 237.555V241H45.2266V234.578H46.0352L46.1406 235.762H46.1816C46.3145 235.523 46.4746 235.307 46.6621 235.111C46.8496 234.912 47.0664 234.754 47.3125 234.637C47.5625 234.52 47.8398 234.461 48.1445 234.461ZM52.2109 240.32C52.3711 240.32 52.5352 240.307 52.7031 240.279C52.8711 240.252 53.0078 240.219 53.1133 240.18V240.936C53 240.986 52.8418 241.029 52.6387 241.064C52.4395 241.1 52.2441 241.117 52.0527 241.117C51.7129 241.117 51.4043 241.059 51.127 240.941C50.8496 240.82 50.627 240.617 50.459 240.332C50.2949 240.047 50.2129 239.652 50.2129 239.148V235.34H49.2988V234.865L50.2188 234.484L50.6055 233.09H51.1914V234.578H53.0723V235.34H51.1914V239.119C51.1914 239.521 51.2832 239.822 51.4668 240.021C51.6543 240.221 51.9023 240.32 52.2109 240.32ZM55.3867 234.578V241H54.4141V234.578H55.3867ZM54.9121 232.176C55.0723 232.176 55.209 232.229 55.3223 232.334C55.4395 232.436 55.498 232.596 55.498 232.814C55.498 233.029 55.4395 233.189 55.3223 233.295C55.209 233.4 55.0723 233.453 54.9121 233.453C54.7441 233.453 54.6035 233.4 54.4902 233.295C54.3809 233.189 54.3262 233.029 54.3262 232.814C54.3262 232.596 54.3809 232.436 54.4902 232.334C54.6035 232.229 54.7441 232.176 54.9121 232.176ZM58.4277 241H57.4492V231.883H58.4277V241ZM61.457 231.883V234.607C61.457 234.764 61.4531 234.922 61.4453 235.082C61.4375 235.238 61.4238 235.383 61.4043 235.516H61.4688C61.6016 235.289 61.7695 235.1 61.9727 234.947C62.1797 234.791 62.4141 234.674 62.6758 234.596C62.9375 234.514 63.2148 234.473 63.5078 234.473C64.0234 234.473 64.4531 234.555 64.7969 234.719C65.1445 234.883 65.4043 235.137 65.5762 235.48C65.752 235.824 65.8398 236.27 65.8398 236.816V241H64.8789V236.881C64.8789 236.346 64.7559 235.945 64.5098 235.68C64.2676 235.414 63.8945 235.281 63.3906 235.281C62.9141 235.281 62.5332 235.373 62.248 235.557C61.9668 235.736 61.7637 236.002 61.6387 236.354C61.5176 236.705 61.457 237.135 61.457 237.643V241H60.4844V231.883H61.457ZM70.2461 234.473C71.0117 234.473 71.5801 234.645 71.9512 234.988C72.3223 235.332 72.5078 235.881 72.5078 236.635V241H71.7988L71.6113 240.051H71.5645C71.3848 240.285 71.1973 240.482 71.002 240.643C70.8066 240.799 70.5801 240.918 70.3223 241C70.0684 241.078 69.7559 241.117 69.3848 241.117C68.9941 241.117 68.6465 241.049 68.3418 240.912C68.041 240.775 67.8027 240.568 67.627 240.291C67.4551 240.014 67.3691 239.662 67.3691 239.236C67.3691 238.596 67.623 238.104 68.1309 237.76C68.6387 237.416 69.4121 237.229 70.4512 237.197L71.5586 237.15V236.758C71.5586 236.203 71.4395 235.814 71.2012 235.592C70.9629 235.369 70.627 235.258 70.1934 235.258C69.8574 235.258 69.5371 235.307 69.2324 235.404C68.9277 235.502 68.6387 235.617 68.3652 235.75L68.0664 235.012C68.3555 234.863 68.6875 234.736 69.0625 234.631C69.4375 234.525 69.832 234.473 70.2461 234.473ZM71.5469 237.836L70.5684 237.877C69.7676 237.908 69.2031 238.039 68.875 238.27C68.5469 238.5 68.3828 238.826 68.3828 239.248C68.3828 239.615 68.4941 239.887 68.7168 240.062C68.9395 240.238 69.2344 240.326 69.6016 240.326C70.1719 240.326 70.6387 240.168 71.002 239.852C71.3652 239.535 71.5469 239.061 71.5469 238.428V237.836ZM77.4297 234.461C77.5586 234.461 77.6934 234.469 77.834 234.484C77.9746 234.496 78.0996 234.514 78.209 234.537L78.0859 235.439C77.9805 235.412 77.8633 235.391 77.7344 235.375C77.6055 235.359 77.4844 235.352 77.3711 235.352C77.1133 235.352 76.8691 235.404 76.6387 235.51C76.4121 235.611 76.2129 235.76 76.041 235.955C75.8691 236.146 75.7344 236.379 75.6367 236.652C75.5391 236.922 75.4902 237.223 75.4902 237.555V241H74.5117V234.578H75.3203L75.4258 235.762H75.4668C75.5996 235.523 75.7598 235.307 75.9473 235.111C76.1348 234.912 76.3516 234.754 76.5977 234.637C76.8477 234.52 77.125 234.461 77.4297 234.461Z" fill="#DF0961"/>
<line x1="50.75" y1="104.5" x2="105.75" y2="104.5" stroke="#DF0961"/>
<rect x="58.75" y="207.617" width="120" height="1" fill="#DF0961"/>
<path d="M329.863 130.473C330.629 130.473 331.197 130.645 331.568 130.988C331.939 131.332 332.125 131.881 332.125 132.635V137H331.416L331.229 136.051H331.182C331.002 136.285 330.814 136.482 330.619 136.643C330.424 136.799 330.197 136.918 329.939 137C329.686 137.078 329.373 137.117 329.002 137.117C328.611 137.117 328.264 137.049 327.959 136.912C327.658 136.775 327.42 136.568 327.244 136.291C327.072 136.014 326.986 135.662 326.986 135.236C326.986 134.596 327.24 134.104 327.748 133.76C328.256 133.416 329.029 133.229 330.068 133.197L331.176 133.15V132.758C331.176 132.203 331.057 131.814 330.818 131.592C330.58 131.369 330.244 131.258 329.811 131.258C329.475 131.258 329.154 131.307 328.85 131.404C328.545 131.502 328.256 131.617 327.982 131.75L327.684 131.012C327.973 130.863 328.305 130.736 328.68 130.631C329.055 130.525 329.449 130.473 329.863 130.473ZM331.164 133.836L330.186 133.877C329.385 133.908 328.82 134.039 328.492 134.27C328.164 134.5 328 134.826 328 135.248C328 135.615 328.111 135.887 328.334 136.062C328.557 136.238 328.852 136.326 329.219 136.326C329.789 136.326 330.256 136.168 330.619 135.852C330.982 135.535 331.164 135.061 331.164 134.428V133.836ZM331.469 127.807V127.924C331.391 128.037 331.283 128.174 331.146 128.334C331.014 128.49 330.865 128.656 330.701 128.832C330.537 129.004 330.371 129.168 330.203 129.324C330.039 129.48 329.887 129.615 329.746 129.729H329.096V129.588C329.221 129.439 329.357 129.262 329.506 129.055C329.654 128.844 329.799 128.629 329.939 128.41C330.08 128.188 330.197 127.986 330.291 127.807H331.469ZM339.432 130.578V137H338.635L338.494 136.098H338.441C338.309 136.32 338.137 136.508 337.926 136.66C337.715 136.812 337.477 136.926 337.211 137C336.949 137.078 336.67 137.117 336.373 137.117C335.865 137.117 335.439 137.035 335.096 136.871C334.752 136.707 334.492 136.453 334.316 136.109C334.145 135.766 334.059 135.324 334.059 134.785V130.578H335.043V134.715C335.043 135.25 335.164 135.65 335.406 135.916C335.648 136.178 336.018 136.309 336.514 136.309C336.99 136.309 337.369 136.219 337.65 136.039C337.936 135.859 338.141 135.596 338.266 135.248C338.391 134.896 338.453 134.467 338.453 133.959V130.578H339.432ZM343.773 137.117C342.961 137.117 342.316 136.84 341.84 136.285C341.367 135.73 341.131 134.906 341.131 133.812C341.131 132.707 341.373 131.873 341.857 131.311C342.342 130.744 342.986 130.461 343.791 130.461C344.131 130.461 344.428 130.506 344.682 130.596C344.936 130.686 345.154 130.807 345.338 130.959C345.521 131.107 345.676 131.277 345.801 131.469H345.871C345.855 131.348 345.84 131.182 345.824 130.971C345.809 130.76 345.801 130.588 345.801 130.455V127.883H346.773V137H345.988L345.842 136.086H345.801C345.68 136.277 345.525 136.451 345.338 136.607C345.154 136.764 344.934 136.889 344.676 136.982C344.422 137.072 344.121 137.117 343.773 137.117ZM343.926 136.309C344.613 136.309 345.1 136.113 345.385 135.723C345.67 135.332 345.812 134.752 345.812 133.982V133.807C345.812 132.99 345.676 132.363 345.402 131.926C345.133 131.488 344.641 131.27 343.926 131.27C343.328 131.27 342.881 131.5 342.584 131.961C342.287 132.418 342.139 133.043 342.139 133.836C342.139 134.625 342.285 135.234 342.578 135.664C342.875 136.094 343.324 136.309 343.926 136.309ZM349.809 130.578V137H348.836V130.578H349.809ZM349.334 128.176C349.494 128.176 349.631 128.229 349.744 128.334C349.861 128.436 349.92 128.596 349.92 128.814C349.92 129.029 349.861 129.189 349.744 129.295C349.631 129.4 349.494 129.453 349.334 129.453C349.166 129.453 349.025 129.4 348.912 129.295C348.803 129.189 348.748 129.029 348.748 128.814C348.748 128.596 348.803 128.436 348.912 128.334C349.025 128.229 349.166 128.176 349.334 128.176ZM357.408 133.777C357.408 134.305 357.34 134.775 357.203 135.189C357.066 135.604 356.869 135.953 356.611 136.238C356.354 136.523 356.041 136.742 355.674 136.895C355.311 137.043 354.898 137.117 354.438 137.117C354.008 137.117 353.613 137.043 353.254 136.895C352.898 136.742 352.59 136.523 352.328 136.238C352.07 135.953 351.869 135.604 351.725 135.189C351.584 134.775 351.514 134.305 351.514 133.777C351.514 133.074 351.633 132.477 351.871 131.984C352.109 131.488 352.449 131.111 352.891 130.854C353.336 130.592 353.865 130.461 354.479 130.461C355.064 130.461 355.576 130.592 356.014 130.854C356.455 131.115 356.797 131.494 357.039 131.99C357.285 132.482 357.408 133.078 357.408 133.777ZM352.521 133.777C352.521 134.293 352.59 134.74 352.727 135.119C352.863 135.498 353.074 135.791 353.359 135.998C353.645 136.205 354.012 136.309 354.461 136.309C354.906 136.309 355.271 136.205 355.557 135.998C355.846 135.791 356.059 135.498 356.195 135.119C356.332 134.74 356.4 134.293 356.4 133.777C356.4 133.266 356.332 132.824 356.195 132.453C356.059 132.078 355.848 131.789 355.562 131.586C355.277 131.383 354.908 131.281 354.455 131.281C353.787 131.281 353.297 131.502 352.984 131.943C352.676 132.385 352.521 132.996 352.521 133.777ZM325.07 144.473C325.836 144.473 326.404 144.645 326.775 144.988C327.146 145.332 327.332 145.881 327.332 146.635V151H326.623L326.436 150.051H326.389C326.209 150.285 326.021 150.482 325.826 150.643C325.631 150.799 325.404 150.918 325.146 151C324.893 151.078 324.58 151.117 324.209 151.117C323.818 151.117 323.471 151.049 323.166 150.912C322.865 150.775 322.627 150.568 322.451 150.291C322.279 150.014 322.193 149.662 322.193 149.236C322.193 148.596 322.447 148.104 322.955 147.76C323.463 147.416 324.236 147.229 325.275 147.197L326.383 147.15V146.758C326.383 146.203 326.264 145.814 326.025 145.592C325.787 145.369 325.451 145.258 325.018 145.258C324.682 145.258 324.361 145.307 324.057 145.404C323.752 145.502 323.463 145.617 323.189 145.75L322.891 145.012C323.18 144.863 323.512 144.736 323.887 144.631C324.262 144.525 324.656 144.473 325.07 144.473ZM326.371 147.836L325.393 147.877C324.592 147.908 324.027 148.039 323.699 148.27C323.371 148.5 323.207 148.826 323.207 149.248C323.207 149.615 323.318 149.887 323.541 150.062C323.764 150.238 324.059 150.326 324.426 150.326C324.996 150.326 325.463 150.168 325.826 149.852C326.189 149.535 326.371 149.061 326.371 148.428V147.836ZM331.41 150.32C331.57 150.32 331.734 150.307 331.902 150.279C332.07 150.252 332.207 150.219 332.312 150.18V150.936C332.199 150.986 332.041 151.029 331.838 151.064C331.639 151.1 331.443 151.117 331.252 151.117C330.912 151.117 330.604 151.059 330.326 150.941C330.049 150.82 329.826 150.617 329.658 150.332C329.494 150.047 329.412 149.652 329.412 149.148V145.34H328.498V144.865L329.418 144.484L329.805 143.09H330.391V144.578H332.271V145.34H330.391V149.119C330.391 149.521 330.482 149.822 330.666 150.021C330.854 150.221 331.102 150.32 331.41 150.32ZM334.586 144.578V151H333.613V144.578H334.586ZM334.111 142.176C334.271 142.176 334.408 142.229 334.521 142.334C334.639 142.436 334.697 142.596 334.697 142.814C334.697 143.029 334.639 143.189 334.521 143.295C334.408 143.4 334.271 143.453 334.111 143.453C333.943 143.453 333.803 143.4 333.689 143.295C333.58 143.189 333.525 143.029 333.525 142.814C333.525 142.596 333.58 142.436 333.689 142.334C333.803 142.229 333.943 142.176 334.111 142.176ZM338.061 151L335.623 144.578H336.666L338.078 148.463C338.176 148.729 338.275 149.021 338.377 149.342C338.479 149.662 338.549 149.92 338.588 150.115H338.629C338.676 149.92 338.754 149.662 338.863 149.342C338.973 149.018 339.072 148.725 339.162 148.463L340.574 144.578H341.617L339.174 151H338.061ZM345.051 144.473C345.816 144.473 346.385 144.645 346.756 144.988C347.127 145.332 347.312 145.881 347.312 146.635V151H346.604L346.416 150.051H346.369C346.189 150.285 346.002 150.482 345.807 150.643C345.611 150.799 345.385 150.918 345.127 151C344.873 151.078 344.561 151.117 344.189 151.117C343.799 151.117 343.451 151.049 343.146 150.912C342.846 150.775 342.607 150.568 342.432 150.291C342.26 150.014 342.174 149.662 342.174 149.236C342.174 148.596 342.428 148.104 342.936 147.76C343.443 147.416 344.217 147.229 345.256 147.197L346.363 147.15V146.758C346.363 146.203 346.244 145.814 346.006 145.592C345.768 145.369 345.432 145.258 344.998 145.258C344.662 145.258 344.342 145.307 344.037 145.404C343.732 145.502 343.443 145.617 343.17 145.75L342.871 145.012C343.16 144.863 343.492 144.736 343.867 144.631C344.242 144.525 344.637 144.473 345.051 144.473ZM346.352 147.836L345.373 147.877C344.572 147.908 344.008 148.039 343.68 148.27C343.352 148.5 343.188 148.826 343.188 149.248C343.188 149.615 343.299 149.887 343.521 150.062C343.744 150.238 344.039 150.326 344.406 150.326C344.977 150.326 345.443 150.168 345.807 149.852C346.17 149.535 346.352 149.061 346.352 148.428V147.836ZM351.602 151.117C350.789 151.117 350.145 150.84 349.668 150.285C349.195 149.73 348.959 148.906 348.959 147.812C348.959 146.707 349.201 145.873 349.686 145.311C350.17 144.744 350.814 144.461 351.619 144.461C351.959 144.461 352.256 144.506 352.51 144.596C352.764 144.686 352.982 144.807 353.166 144.959C353.35 145.107 353.504 145.277 353.629 145.469H353.699C353.684 145.348 353.668 145.182 353.652 144.971C353.637 144.76 353.629 144.588 353.629 144.455V141.883H354.602V151H353.816L353.67 150.086H353.629C353.508 150.277 353.354 150.451 353.166 150.607C352.982 150.764 352.762 150.889 352.504 150.982C352.25 151.072 351.949 151.117 351.602 151.117ZM351.754 150.309C352.441 150.309 352.928 150.113 353.213 149.723C353.498 149.332 353.641 148.752 353.641 147.982V147.807C353.641 146.99 353.504 146.363 353.23 145.926C352.961 145.488 352.469 145.27 351.754 145.27C351.156 145.27 350.709 145.5 350.412 145.961C350.115 146.418 349.967 147.043 349.967 147.836C349.967 148.625 350.113 149.234 350.406 149.664C350.703 150.094 351.152 150.309 351.754 150.309ZM362.201 147.777C362.201 148.305 362.133 148.775 361.996 149.189C361.859 149.604 361.662 149.953 361.404 150.238C361.146 150.523 360.834 150.742 360.467 150.895C360.104 151.043 359.691 151.117 359.23 151.117C358.801 151.117 358.406 151.043 358.047 150.895C357.691 150.742 357.383 150.523 357.121 150.238C356.863 149.953 356.662 149.604 356.518 149.189C356.377 148.775 356.307 148.305 356.307 147.777C356.307 147.074 356.426 146.477 356.664 145.984C356.902 145.488 357.242 145.111 357.684 144.854C358.129 144.592 358.658 144.461 359.271 144.461C359.857 144.461 360.369 144.592 360.807 144.854C361.248 145.115 361.59 145.494 361.832 145.99C362.078 146.482 362.201 147.078 362.201 147.777ZM357.314 147.777C357.314 148.293 357.383 148.74 357.52 149.119C357.656 149.498 357.867 149.791 358.152 149.998C358.438 150.205 358.805 150.309 359.254 150.309C359.699 150.309 360.064 150.205 360.35 149.998C360.639 149.791 360.852 149.498 360.988 149.119C361.125 148.74 361.193 148.293 361.193 147.777C361.193 147.266 361.125 146.824 360.988 146.453C360.852 146.078 360.641 145.789 360.355 145.586C360.07 145.383 359.701 145.281 359.248 145.281C358.58 145.281 358.09 145.502 357.777 145.943C357.469 146.385 357.314 146.996 357.314 147.777Z" fill="#DF0961"/>
<rect x="324.25" y="159" width="36" height="33" rx="16.5" fill="#DF0961"/>
<path d="M347.309 183H337.328V180.9L340.912 177.277C341.635 176.535 342.214 175.917 342.65 175.422C343.093 174.921 343.412 174.465 343.607 174.055C343.809 173.645 343.91 173.205 343.91 172.736C343.91 172.17 343.751 171.747 343.432 171.467C343.119 171.18 342.699 171.037 342.172 171.037C341.618 171.037 341.081 171.164 340.561 171.418C340.04 171.672 339.496 172.033 338.93 172.502L337.289 170.559C337.699 170.207 338.132 169.875 338.588 169.562C339.05 169.25 339.584 168.999 340.189 168.811C340.801 168.615 341.534 168.518 342.387 168.518C343.324 168.518 344.128 168.687 344.799 169.025C345.476 169.364 345.997 169.826 346.361 170.412C346.726 170.992 346.908 171.649 346.908 172.385C346.908 173.173 346.752 173.892 346.439 174.543C346.127 175.194 345.671 175.839 345.072 176.477C344.48 177.115 343.764 177.821 342.924 178.596L341.088 180.324V180.461H347.309V183Z" fill="white"/>
<defs>
<clipPath id="clip0_3886_4866">
<rect width="212.365" height="227.616" fill="white" transform="translate(85.5684)"/>
</clipPath>
</defs>
</svg>
