<svg width="32" height="32" viewBox="0 0 20 26" fill="none" xmlns="http://www.w3.org/2000/svg">
<path d="M15.7111 18.9297H9.23894C8.8662 18.9297 8.56445 19.1653 8.56445 19.4573V24.5111C8.56445 24.9807 9.29218 25.2162 9.71656 24.8838L16.1887 19.8301C16.6147 19.4977 16.3129 18.9297 15.7111 18.9297Z" fill="#009CB1"/>
<path d="M3.76128 7.07653H10.1834C10.5529 7.07653 10.853 6.84095 10.853 6.54889V1.49512C10.853 1.02556 10.1317 0.789977 9.70898 1.12238L3.28688 6.17615C2.86574 6.50855 3.16425 7.07653 3.76128 7.07653Z" fill="#009CB1"/>
<path d="M17.7124 7.86328H1.76204C0.789047 7.86328 0 8.65233 0 9.62532V16.3217C0 17.2947 0.789047 18.0838 1.76204 18.0838H17.7124C18.6854 18.0838 19.4745 17.2947 19.4745 16.3217V9.62532C19.4745 8.65233 18.6854 7.86328 17.7124 7.86328ZM13.0556 13.698C12.8926 13.698 12.7377 13.6674 12.5941 13.6141C12.0971 14.1063 11.1031 14.8808 9.74449 14.884H9.73642C8.37455 14.884 7.37735 14.1079 6.88036 13.6141C6.73675 13.6674 6.58185 13.698 6.41887 13.698C5.69114 13.698 5.10218 13.1091 5.10218 12.3813C5.10218 11.6536 5.69114 11.0646 6.41887 11.0646C7.1466 11.0646 7.73557 11.6536 7.73557 12.3813C7.73557 12.767 7.56775 13.1139 7.30474 13.3543C7.76622 13.7932 8.61497 14.4112 9.73803 14.4112H9.74449C10.8643 14.4096 11.7115 13.7916 12.1713 13.3543C11.9067 13.1139 11.7405 12.767 11.7405 12.3813C11.7405 11.6536 12.3295 11.0646 13.0572 11.0646C13.7849 11.0646 14.3739 11.6536 14.3739 12.3813C14.3739 13.1091 13.7849 13.698 13.0572 13.698H13.0556Z" fill="#009CB1"/>
</svg>
